<svg xmlns="http://www.w3.org/2000/svg" version="1.1" x="0" y="0" width="600" height="300" viewBox="0" enable-background="new 0 0 600 300" xml:space="preserve"><rect fill="#6B919E" width="600" height="300"/><path fill="#FCFCFC" d="M254.5 169.5c-2.1-2.3-3.2-5.4-3.2-9.6 0-3.9 0.5-7.8 1.6-11.5 1-3.7 2.5-7.1 4.3-9.9 1.8-2.9 3.9-5.2 6.4-6.9 2.5-1.7 5.1-2.6 8-2.6 3.4 0 6.2 1.2 8.3 3.5 2.1 2.3 3.1 5.4 3.1 9.1 0 3.8-0.5 7.5-1.6 11.3 -1 3.7-2.5 7.1-4.3 10.1 -1.8 3-4 5.4-6.4 7.2 -2.5 1.8-5.1 2.8-7.9 2.8C259.4 172.9 256.6 171.8 254.5 169.5M254.8 122.2c-4.2 2.4-7.8 5.4-10.8 9.3 -3 3.9-5.4 8.3-7 13.3 -1.6 5-2.5 10.1-2.5 15.4 0 3.4 0.5 6.4 1.5 9.3 1 2.8 2.5 5.2 4.3 7.3s4.1 3.7 6.8 4.8c2.7 1.1 5.6 1.7 8.9 1.7 4.2 0 8-1 11.4-3s6.4-4.6 8.9-7.8c0 7.2 4.4 10.8 13.3 10.8 1.9 0 3.7-0.2 5.4-0.5 1.6-0.3 3.3-0.7 5-1.1l2.5-9.3c-0.9 0.3-1.7 0.6-2.4 0.7 -0.7 0.1-1.4 0.2-2.3 0.2 -2.6 0-3.9-1.3-3.9-4 0-1.3 0.3-3.2 1-5.6 0.7-2.4 1.4-5.1 2.3-8.2l9.6-36.3c-1.3 0.4-2.8 0.7-4.5 0.9 -1.8 0.2-3.8 0.3-6 0.3h-6.3l-3.3 11.8c-1.1-4.3-3.2-7.6-6.3-10 -3.1-2.3-7-3.5-11.8-3.5C263.6 118.6 259 119.8 254.8 122.2M400.1 171.7c-1.4-0.7-2.6-1.6-3.7-2.8 -1-1.1-1.8-2.5-2.3-4 -0.5-1.5-0.8-3.1-0.8-4.7 0-3.8 0.5-7.5 1.5-11.3s2.3-7.1 4.1-10.1c1.8-3 3.8-5.4 6.2-7.2 2.4-1.8 5-2.8 7.9-2.8 3.4 0 6.2 1.1 8.3 3.4 2.1 2.3 3.2 5.4 3.3 9.6 0 3.9-0.5 7.8-1.5 11.5 -1 3.8-2.4 7-4.2 9.9s-3.9 5.1-6.3 6.8c-2.4 1.7-4.9 2.6-7.6 2.6C403.2 172.8 401.6 172.4 400.1 171.7M409.3 121.3c-3.1 1.8-5.9 4.1-8.4 6.9l2.5-9.2c-1.5 0.3-3.6 0.6-6.3 0.9 -2.7 0.2-5.6 0.4-8.7 0.4h-11.3l-2.5 9.4h7.2c0.8 0 1.2 0.3 1.5 0.8 0.2 0.5 0.1 1.5-0.3 3l-15.6 57c-0.4 1.4-0.8 2.3-1.3 2.7 -0.5 0.4-1 0.6-1.7 0.6h-5.5l-2.5 9.4h33.2l2.5-9.4h-6.4c-0.7 0-1.1-0.2-1.5-0.6 -0.3-0.4-0.2-1.3 0.2-2.7l5.5-20.6c1.1 4 3.2 7.3 6.4 9.7 3.2 2.4 7.3 3.6 12.3 3.6 5.1 0 9.7-1.1 13.8-3.4 4.1-2.3 7.5-5.3 10.4-9.1 2.8-3.8 5-8.1 6.5-13 1.5-4.9 2.3-10 2.3-15.4 0-3.4-0.5-6.5-1.5-9.4 -1-2.9-2.4-5.4-4.3-7.6 -1.9-2.1-4.2-3.8-6.9-5 -2.7-1.2-5.8-1.8-9.3-1.8C415.9 118.6 412.4 119.5 409.3 121.3M346.2 121.6c-3.1 2.2-5.7 5.2-7.9 8.9l3.1-11.5c-1.5 0.3-3.6 0.6-6.3 0.9 -2.7 0.2-5.6 0.4-8.7 0.4h-11.7l-2.5 9.4h7.5c0.8 0 1.2 0.3 1.5 0.8 0.2 0.5 0.1 1.5-0.3 3l-13.2 48.1h16.9l5.4-20.1c1.4-5.4 2.8-10.1 4.3-14.2 1.4-4.1 3-7.6 4.6-10.3 1.6-2.8 3.4-4.9 5.4-6.3 2-1.4 4.2-2.1 6.7-2.1 0.9 0 1.8 0.2 2.7 0.5 0.8 0.3 1.5 0.8 1.9 1.4 -2.2 0.3-4 1.3-5.3 3 -1.4 1.7-2 3.5-2 5.4 0.1 2.2 0.9 4 2.4 5.4s3.6 2.1 6.3 2.1c1.8 0 3.5-0.5 5.1-1.3 1.5-0.9 2.9-2.1 4-3.5s2-3.1 2.6-5.1c0.6-1.9 0.8-4 0.8-6.2 -0.2-3.5-1.4-6.4-3.6-8.6 -2.3-2.2-5.4-3.3-9.3-3.3C352.6 118.3 349.2 119.4 346.2 121.6M192.2 97.6c-2.7 0.2-5.6 0.4-8.7 0.4h-11l-2.6 9.4h6.5c0.8 0 1.3 0.3 1.5 0.8 0.2 0.5 0 1.5-0.4 3l-19 70.4h16.7c2.3-9.3 4.7-17.3 7-23.8 2.3-6.6 4.6-12 7-16.2 2.4-4.2 4.8-7.3 7.2-9.2 2.4-1.9 5-2.9 7.6-2.9 1.9 0 3.6 0.6 4.9 1.7 1.4 1.1 2 2.8 2 5 0 1-0.3 2.5-0.8 4.3 -0.5 1.9-1.1 4-1.8 6.2 -0.7 2.3-1.5 4.7-2.3 7.2 -0.8 2.5-1.6 5-2.3 7.3 -0.7 2.3-1.3 4.5-1.8 6.5 -0.5 2-0.8 3.5-0.8 4.7 0 3.8 1.1 6.6 3.4 8.3 2.3 1.7 5.4 2.5 9.6 2.5 1.8 0 3.7-0.1 5.5-0.4 1.8-0.2 3.6-0.7 5.3-1.3l2.5-9.3c-1.7 0.6-3.2 0.9-4.7 0.9 -2.5 0-3.8-1.2-3.8-3.7 0-1.2 0.5-3.4 1.6-6.5 1-3.2 2.2-6.7 3.5-10.5 1.3-3.8 2.4-7.6 3.5-11.3 1-3.7 1.6-6.6 1.6-8.7 0-4.5-1.6-8-4.7-10.3 -3.1-2.3-7-3.5-11.5-3.5 -5.2 0-9.8 1.3-13.8 3.9 -4 2.6-7.6 6.4-10.8 11.3l10.3-37.2C197 97.1 194.9 97.4 192.2 97.6"/></svg>