<?xml version="1.0" encoding="utf-8"?>
<!-- Generator: Adobe Illustrator 17.0.0, SVG Export Plug-In . SVG Version: 6.00 Build 0)  -->
<!DOCTYPE svg PUBLIC "-//W3C//DTD SVG 1.1//EN" "http://www.w3.org/Graphics/SVG/1.1/DTD/svg11.dtd">
<svg version="1.1" id="Layer_1" xmlns="http://www.w3.org/2000/svg" xmlns:xlink="http://www.w3.org/1999/xlink" x="0px" y="0px"
	 width="960px" height="200px" viewBox="0 0 960 200" enable-background="new 0 0 960 200" xml:space="preserve">
<g>
	<rect x="-0.583" y="0" fill="#6B919E" width="960.706" height="200"/>
	<path fill="#546D7A" d="M960.122,200V44.65c0,0,0.02-2.51-0.65-3.25c-0.83-0.92-1.86-1.35-1.86-1.35l-92.24-39.73l-5.96,32.3
		l-58.08-25.05l-0.86,34.81l-62.73-27.06l-1.29,34.58l-63.18-27.25l-0.82,34.95l-62.61-27.01l-1.39,34.26l-62.71-27.05l-1.3,34.53
		l-62.61-27.01l-1.39,34.59l-63.03-27.19h-0.12l-0.85,34.59l-62.51-26.96l-1.49,34.34L290.572,68l-2.13,34.06l-61.24-26.42
		l-2.76,33.75l-60.36-26.04l-3.64,33.14l-58.96-25.43l-10.64,29.78l-50.74-21.591l-5.86,100.761h925.88V200z"/>
	<g>
		<path fill="#FCFCFC" d="M800.492,7.53c-16,1.88-16,187.34-32.01,185.63c-16-1.71-16-179.99-32.01-178.1
			c-16,1.88-16,172.97-32,171.27c-16-1.71-16-165.62-32-163.74s-16,158.61-32.01,156.9c-16-1.71-16-151.25-32-149.37
			s-16,144.24-32.01,142.54s-16-136.89-32.01-135c-16,1.88-16,129.88-32,128.17s-16-122.52-32-120.64s-16,115.51-32,113.8
			s-16-108.15-32-106.27s-16,101.15-32,99.44s-16-93.79-32-91.91c-16,1.88-16,86.78-32,85.07s-16-79.42-32-77.54s-16,72.41-32,70.71
			c-16-1.71-16-65.06-32-63.18s-16,58.05-32,56.34c-16-1.71-16-50.69-32.01-48.81c-16,1.88-16,43.68-32,41.97s-16-36.33-32-34.44
			c-16,1.88-16,29.32-32,27.61C49.062,116.34,48.462,98,34.242,98c-11.79,0-40.62-0.04-40.94,0v102h839.19
			C816.492,198.29,816.492,5.65,800.492,7.53z"/>
		<path fill="#FCFCFC" d="M926.714,97.942c-14.23,0-15.002,18.378-30.372,20.018c-4.26,0-7.73-1.62-10.58-4.45
			c-1.76-1.96-3.29-4.39-4.79-6.93c-14.37-29.15-3.93-104.39-16.46-106.55v-0.04c-0.03,0-0.06,0.01-0.08,0.02
			c-0.03,0-0.05-0.01-0.08-0.02v0.04c-15.71,3.22-15.89,198.42-31.45,199.96h134.42l0.182-102.048
			C967.164,97.902,938.504,97.942,926.714,97.942z"/>
	</g>
</g>
</svg>
