<svg xmlns="http://www.w3.org/2000/svg" width="960" height="200" viewBox="0 0 960 200"><path fill="#6B919E" d="M-.583 0h960.706v200h-960.706z"/><path fill="#546D7A" d="M960.122 200v-155.35s.02-2.51-.65-3.25c-.83-.92-1.86-1.35-1.86-1.35l-92.24-39.73-5.96 32.3-58.08-25.05-.86 34.81-62.73-27.06-1.29 34.58-63.18-27.25-.82 34.95-62.61-27.01-1.39 34.26-62.71-27.05-1.3 34.53-62.61-27.01-1.39 34.59-63.03-27.19h-.12l-.85 34.59-62.51-26.96-1.49 34.34-61.87-26.69-2.13 34.06-61.24-26.42-2.76 33.75-60.36-26.04-3.64 33.14-58.96-25.43-10.64 29.78-50.74-21.591-5.86 100.761h925.88v-.01z"/><path d="M800.492 7.53c-16 1.88-16 187.34-32.01 185.63-16-1.71-16-179.99-32.01-178.1-16 1.88-16 172.97-32 171.27-16-1.71-16-165.62-32-163.74s-16 158.61-32.01 156.9c-16-1.71-16-151.25-32-149.37s-16 144.24-32.01 142.54-16-136.89-32.01-135c-16 1.88-16 129.88-32 128.17s-16-122.52-32-120.64-16 115.51-32 113.8-16-108.15-32-106.27-16 101.15-32 99.44-16-93.79-32-91.91c-16 1.88-16 86.78-32 85.07s-16-79.42-32-77.54-16 72.41-32 70.71c-16-1.71-16-65.06-32-63.18s-16 58.05-32 56.34c-16-1.71-16-50.69-32.01-48.81-16 1.88-16 43.68-32 41.97s-16-36.33-32-34.44c-16 1.88-16 29.32-32 27.61-15.37-1.64-15.97-19.98-30.19-19.98-11.79 0-40.62-.04-40.94 0v102h839.19c-16-1.71-16-194.35-32-192.47zm126.222 90.412c-14.23 0-15.002 18.378-30.372 20.018-4.26 0-7.73-1.62-10.58-4.45-1.76-1.96-3.29-4.39-4.79-6.93-14.37-29.15-3.93-104.39-16.46-106.55v-.04l-.08.02-.08-.02v.04c-15.71 3.22-15.89 198.42-31.45 199.96h134.42l.182-102.048c-.34-.04-29 0-40.79 0z" fill="#FCFCFC"/></svg>