<?xml version="1.0" standalone="no"?><!DOCTYPE svg PUBLIC "-//W3C//DTD SVG 1.1//EN" "http://www.w3.org/Graphics/SVG/1.1/DTD/svg11.dtd"><svg width="100%" height="100%" viewBox="0 0 400 300" version="1.1" xmlns="http://www.w3.org/2000/svg" xmlns:xlink="http://www.w3.org/1999/xlink" xml:space="preserve" style="fill-rule:evenodd;clip-rule:evenodd;stroke-linejoin:round;stroke-miterlimit:1.41421;"><path d="M38,87l324,0l0,108l-162,0l0,18l-72,0l0,-18l-90,0l0,-108ZM218,105l-72,0l0,90l36,0l0,-18l36,0l0,-72ZM92,177l0,-54l18,0l0,54l18,0l0,-72l-72,0l0,72l36,0ZM344,177l0,-72l-108,0l0,72l36,0l0,-54l18,0l0,54l18,0l0,-54l18,0l0,54l18,0ZM182,123l18,0l0,36l-18,0l0,-36Z" style="fill:#fff;"/></svg>