<?xml version="1.0" standalone="no"?><!DOCTYPE svg PUBLIC "-//W3C//DTD SVG 1.1//EN" "http://www.w3.org/Graphics/SVG/1.1/DTD/svg11.dtd"><svg width="100%" height="100%" viewBox="0 0 400 300" version="1.1" xmlns="http://www.w3.org/2000/svg" xmlns:xlink="http://www.w3.org/1999/xlink" xml:space="preserve" style="fill-rule:evenodd;clip-rule:evenodd;stroke-linejoin:round;stroke-miterlimit:1.41421;"><g><path d="M281.287,92.299l-81.786,-27.889l0,171.246l68.541,-37.933l13.245,-105.424Z" style="fill:#fff;fill-opacity:0.25098;fill-rule:nonzero;"/><path d="M119.835,92.802l12.183,105.425l67.482,37.429l0,-171.25l-79.665,28.396Z" style="fill:#fff;fill-opacity:0.501961;fill-rule:nonzero;"/><path d="M199.711,54.384l-89.972,31.663l14.217,117.88l75.851,41.689l76.242,-42.254l14.212,-117.875l-90.55,-31.103ZM119.835,92.802l12.183,105.425l67.482,37.429l0,-171.25l-79.665,28.396ZM281.287,92.299l-81.786,-27.889l0,171.246l68.541,-37.933l13.245,-105.424Z" style="fill:#fff;fill-opacity:0.74902;"/><path d="M199.501,70.627l0.149,39.68l18.788,39.308l-18.895,0l-0.042,16.459l26.128,0.026l12.211,28.286l19.852,0.369l-58.191,-124.128Z" style="fill:#fff;fill-opacity:0.74902;fill-rule:nonzero;"/><path d="M199.65,110.307l0,0.001l-16.558,39.277l35.332,0l0.014,0.03l-18.895,0l-0.042,16.459l25.99,0.026l-49.718,0l-11.154,27.898l-20.747,0.384l55.629,-123.752l0.149,39.677ZM199.589,70.816l-0.087,-0.188l0,0l0.087,0.188Z" style="fill:#fff;"/></g></svg>