<?xml version="1.0" standalone="no"?><!DOCTYPE svg PUBLIC "-//W3C//DTD SVG 1.1//EN" "http://www.w3.org/Graphics/SVG/1.1/DTD/svg11.dtd"><svg width="100%" height="100%" viewBox="0 0 400 300" version="1.1" xmlns="http://www.w3.org/2000/svg" xmlns:xlink="http://www.w3.org/1999/xlink" xml:space="preserve" style="fill-rule:evenodd;clip-rule:evenodd;stroke-linejoin:round;stroke-miterlimit:1.41421;"><g id="Group"><g><path id="Shape" d="M99.171,95.307l0,45.566l-18.342,0l0,-45.566l-18.329,0l0,109.386l18.329,0l0,-45.58l18.342,0l0,45.58l18.329,0l0,-109.386l-18.329,0" style="fill:#fff;"/><path id="Shape1" d="M171.338,95.307l0,86.582c0,2.523 -2.025,4.554 -4.572,4.554l-9.161,0c-2.53,0 -4.596,-2.034 -4.596,-4.554l0,-86.582l-18.322,0l0,91.136c0,10.087 8.223,18.25 18.322,18.25l18.329,0c10.151,0 18.349,-8.163 18.349,-18.25l0,-91.136l-18.349,0" style="fill:#fff;"/><path id="Shape2" d="M337.5,113.527l0,-18.22l-55,0l0,109.386l55,0l0,-18.25l-36.675,0l0,-27.33l18.353,0l0,-18.24l-18.353,0l0,-27.346l36.675,0" style="fill:#fff;"/><path id="Shape3" d="M265.313,122.643l0,-9.116c0,-10.067 -8.23,-18.22 -18.357,-18.22l-18.301,0c-10.123,0 -18.342,8.153 -18.342,18.22l0,72.916c0,10.087 8.201,18.25 18.342,18.25l18.301,0c10.127,0 18.357,-8.163 18.357,-18.25l0,-45.573l-27.494,0l0,18.24l9.137,0l0,22.793c0,2.506 -2.035,4.54 -4.565,4.54l-9.14,0c-2.551,0 -4.596,-2.034 -4.596,-4.554l0,-63.823c0,-2.536 2.045,-4.539 4.596,-4.539l9.14,0c2.527,0 4.565,2.003 4.565,4.539l0,4.577l18.357,0" style="fill:#fff;"/></g></g></svg>