<?xml version="1.0" encoding="utf-8"?>
<!-- Generator: Adobe Illustrator 16.0.0, SVG Export Plug-In . SVG Version: 6.00 Build 0)  -->
<!DOCTYPE svg PUBLIC "-//W3C//DTD SVG 1.1//EN" "http://www.w3.org/Graphics/SVG/1.1/DTD/svg11.dtd">
<svg version="1.1" id="Layer_1" xmlns="http://www.w3.org/2000/svg" xmlns:xlink="http://www.w3.org/1999/xlink" x="0px" y="0px"
	 width="687.5px" height="250.83px" viewBox="0 0 687.5 250.83" enable-background="new 0 0 687.5 250.83" xml:space="preserve">
<g>
	<path fill="#666666" d="M269.36,102.93h46.19l-1.66,8.7H279.99v28.79h28.149v8.57H279.99v41.71h-10.62v-87.77H269.36z"/>
	<path fill="#666666" d="M321.06,102.93h11.261l11.13,51.299c2.56,11.521,4.729,26.74,4.729,26.74s2.69-15.22,4.99-25.46
		l11.64-52.58h11.9l12.15,54.5c2.939,13.43,4.479,23.539,4.479,23.539s2.3-13.82,5.12-27.119l10.88-50.92h10.49l-20.09,87.77h-13.69
		l-10.88-48.75C372.1,128,370.56,117,370.56,117s-1.79,11.771-4.479,24.181l-10.75,49.51H341.77L321.06,102.93z"/>
	<path fill="#666666" d="M426.6,102.93h17.53c13.43,0,19.58,0.64,28.15,6.78c9.979,7.16,14.84,20.09,14.84,37.23
		c0,15.35-4.09,26.229-9.98,32.75c-7.68,8.569-15.35,11-27.63,11H426.61v-87.76H426.6z M437.09,111.5V182h10.49
		c9.08,0,17.53-1.021,22.26-9.21c3.97-6.78,5.891-15.35,5.891-24.57c0-13.18-1.66-21.619-7.551-28.66
		c-5.76-6.78-11.39-8.06-20.6-8.06H437.09z"/>
</g>
<path fill="#666666" d="M110.12,191.25H92.97l-9.22-41.69c-2.99-13.51-4.42-25.97-4.42-25.97h-0.39c0,0-2.34,14.681-4.55,25.58
	l-8.7,42.08H48.17l-21.43-90.39h15.97l8.96,41.821c3.12,14.549,4.81,28.829,4.81,28.829h0.39c0,0,2.6-16.88,4.94-27.79l9.35-42.86
	h16.75l9.35,44.68c2.21,10.65,4.41,25.33,4.41,25.33h0.39c0,0,2.99-18.96,5.19-29.221l8.57-40.779h15.58L110.12,191.25z"/>
<path fill="#666666" d="M145.33,161.771v1.039c0,9.09,3.38,18.7,16.24,18.7c6.1,0,11.43-2.21,16.36-6.489l5.59,8.699
	c-6.88,5.84-14.81,8.7-23.64,8.7c-18.57,0-30.26-13.38-30.26-34.42c0-11.56,2.47-19.22,8.18-25.72c5.33-6.1,11.82-8.83,20.13-8.83
	c6.49,0,12.47,1.69,18.05,6.75c5.71,5.189,8.57,13.25,8.57,28.57v2.989h-39.22V161.771z M157.93,134.229
	c-8.05,0-12.47,6.36-12.47,17.011h24.29C169.75,140.601,165.07,134.229,157.93,134.229z"/>
<path fill="#666666" d="M222.62,192.16c-6.49,0-11.95-2.601-15.97-7.53c-0.65,3.38-0.78,4.29-1.82,6.1h-13.12
	c1.17-2.989,1.69-5.84,1.69-14.68V114.1c0-7.53-0.52-12.21-1.69-15.85L206.52,95c0.78,4.67,1.04,7.92,1.04,13.12v15.33
	c0,4.29-0.39,6.23-0.39,6.23l0.52,0.129c4.54-4.419,9.35-6.359,15.58-6.359c15.72,0,25.59,12.859,25.59,33.38
	C248.86,177.87,237.95,192.16,222.62,192.16z M220.16,135.53c-5.97,0-9.87,3.38-12.47,6.619v32.08c2.86,2.99,7.01,5.711,12.21,5.711
	c8.96,0,12.86-6.49,12.86-22.99C232.75,145.14,230.42,135.53,220.16,135.53z"/>
<polygon opacity="0.2" fill="#666666" enable-background="new    " points="582,118 531.6,67.6 502.8,96.4 553.2,146.8 502.8,197.2 
	531.6,226 610.8,146.8 "/>
<polygon fill="#666666" points="582,17.2 553.2,46 603.6,96.4 553.2,146.8 582,175.601 661.2,96.4 "/>
<g>
	<path fill="#666666" d="M31.05,59.88c0.36,0.56,0.52,1.05,0.72,2.09c1.4-1.37,3.13-2.09,5.02-2.09c1.71,0,3.11,0.56,4.19,1.68
		c0.29,0.29,0.57,0.65,0.82,1.01c1.88-1.93,3.57-2.69,5.83-2.69c1.61,0,3.14,0.48,4.07,1.28c1.16,1.01,1.53,2.22,1.53,5.03v14.65H48
		v-13.6c0-2.46-0.29-2.94-1.69-2.94c-1.01,0-2.42,0.69-3.58,1.73v14.81h-5.1v-13.4c0-2.57-0.37-3.17-1.87-3.17
		c-1,0-2.37,0.51-3.53,1.56v15.01h-5.27V66.47c0-2.97-0.21-4.26-0.77-5.27L31.05,59.88z"/>
	<path fill="#666666" d="M72.48,62.94c1.65,1.93,2.38,4.18,2.38,7.52c0,3.54-0.81,5.96-2.59,7.97c-1.56,1.77-3.62,2.86-6.79,2.86
		c-5.6,0-9.25-4.18-9.25-10.66s3.69-10.79,9.25-10.79C68.42,59.84,70.72,60.84,72.48,62.94z M62.79,65.91
		c-0.37,1.09-0.56,2.54-0.56,4.59c0,2.37,0.24,4.15,0.68,5.19c0.49,1.13,1.7,1.69,2.73,1.69c2.34,0,3.34-2.09,3.34-6.96
		c0-2.78-0.36-4.59-1.08-5.52c-0.52-0.68-1.36-1.08-2.33-1.08C64.27,63.82,63.23,64.62,62.79,65.91z"/>
	<path fill="#666666" d="M92.21,60.24v3.7l-9.1,13.16h9.45l-1.29,3.74H76.11V77.5l9.69-13.48h-8.88v-3.78H92.21z"/>
	<path fill="#666666" d="M101.32,54.57c0,1.85-1.47,3.33-3.34,3.33c-1.8,0-3.29-1.48-3.29-3.33s1.53-3.34,3.38-3.34
		C99.88,51.23,101.32,52.72,101.32,54.57z M100.69,59.76v21.08H95.3V60.6L100.69,59.76z"/>
	<path fill="#666666" d="M110.51,56.42v16.05c0,3.55,0.04,4.021,0.37,4.59c0.21,0.37,0.64,0.56,1.09,0.56c0.2,0,0.31,0,0.6-0.07
		l0.92,3.22c-0.92,0.36-2.05,0.56-3.22,0.56c-2.3,0-4.15-1.08-4.79-2.81c-0.4-1.05-0.49-1.69-0.49-4.63V58.51
		c0-2.7-0.07-4.34-0.27-6.2l5.51-1.25C110.42,52.19,110.51,53.52,110.51,56.42z"/>
	<path fill="#666666" d="M121.69,56.42v16.05c0,3.55,0.05,4.021,0.38,4.59c0.19,0.37,0.63,0.56,1.08,0.56c0.2,0,0.33,0,0.61-0.07
		l0.92,3.22c-0.92,0.36-2.05,0.56-3.22,0.56c-2.3,0-4.15-1.08-4.79-2.81c-0.41-1.05-0.48-1.69-0.48-4.63V58.51
		c0-2.7-0.08-4.34-0.29-6.2l5.5-1.25C121.62,52.19,121.69,53.52,121.69,56.42z"/>
	<path fill="#666666" d="M130.15,61.01c2.01-0.85,3.73-1.21,5.63-1.21c3.47,0,5.84,1.28,6.65,3.58c0.27,0.84,0.39,1.49,0.37,3.7
		L142.66,74c0,0.12,0,0.25,0,0.37c0,2.21,0.37,3.06,1.94,4.22l-2.86,3.31c-1.26-0.53-2.38-1.46-2.91-2.5
		c-0.4,0.41-0.84,0.8-1.25,1.08c-1,0.73-2.46,1.13-4.15,1.13c-4.59,0-7.08-2.34-7.08-6.43c0-4.84,3.35-7.09,9.9-7.09
		c0.4,0,0.77,0,1.21,0.05V67.3c0-2.3-0.45-3.06-2.43-3.06c-1.71,0-3.74,0.84-5.95,2.33l-2.3-3.86
		C127.89,62.01,128.69,61.61,130.15,61.01z M137.13,71.83c-3.73,0-5.04,0.68-5.04,3.14c0,1.6,1.02,2.69,2.39,2.69
		c1,0,2.01-0.52,2.81-1.41l0.09-4.43h-0.25V71.83z"/>
</g>
</svg>
