<svg xmlns="http://www.w3.org/2000/svg" width="687.5" height="250.83" viewBox="0 0 687.5 250.83"><path d="M269.36 102.93h46.19l-1.66 8.7h-33.9v28.79h28.149v8.57h-28.149v41.71h-10.62v-87.77h-.01zm51.7 0h11.261l11.13 51.299c2.56 11.521 4.729 26.74 4.729 26.74s2.69-15.22 4.99-25.46l11.64-52.58h11.9l12.15 54.5c2.939 13.43 4.479 23.539 4.479 23.539s2.3-13.82 5.12-27.119l10.88-50.92h10.49l-20.09 87.77h-13.69l-10.88-48.75c-3.069-13.949-4.609-24.949-4.609-24.949s-1.79 11.771-4.479 24.181l-10.75 49.51h-13.561l-20.71-87.761zm105.54 0h17.53c13.43 0 19.58.64 28.15 6.78 9.979 7.16 14.84 20.09 14.84 37.23 0 15.35-4.09 26.229-9.98 32.75-7.68 8.569-15.35 11-27.63 11h-22.9v-87.76h-.01zm10.49 8.57v70.5h10.49c9.08 0 17.53-1.021 22.26-9.21 3.97-6.78 5.891-15.35 5.891-24.57 0-13.18-1.66-21.619-7.551-28.66-5.76-6.78-11.39-8.06-20.6-8.06h-10.49zM110.12 191.25h-17.15l-9.22-41.69c-2.99-13.51-4.42-25.97-4.42-25.97h-.39s-2.34 14.681-4.55 25.58l-8.7 42.08h-17.52l-21.43-90.39h15.97l8.96 41.821c3.12 14.549 4.81 28.829 4.81 28.829h.39s2.6-16.88 4.94-27.79l9.35-42.86h16.75l9.35 44.68c2.21 10.65 4.41 25.33 4.41 25.33h.39s2.99-18.96 5.19-29.221l8.57-40.779h15.58l-21.28 90.38zm35.21-29.479v1.039c0 9.09 3.38 18.7 16.24 18.7 6.1 0 11.43-2.21 16.36-6.489l5.59 8.699c-6.88 5.84-14.81 8.7-23.64 8.7-18.57 0-30.26-13.38-30.26-34.42 0-11.56 2.47-19.22 8.18-25.72 5.33-6.1 11.82-8.83 20.13-8.83 6.49 0 12.47 1.69 18.05 6.75 5.71 5.189 8.57 13.25 8.57 28.57v2.989h-39.22v.012zm12.6-27.542c-8.05 0-12.47 6.36-12.47 17.011h24.29c0-10.639-4.68-17.011-11.82-17.011zm64.69 57.931c-6.49 0-11.95-2.601-15.97-7.53-.65 3.38-.78 4.29-1.82 6.1h-13.12c1.17-2.989 1.69-5.84 1.69-14.68v-61.95c0-7.53-.52-12.21-1.69-15.85l14.81-3.25c.78 4.67 1.04 7.92 1.04 13.12v15.33c0 4.29-.39 6.23-.39 6.23l.52.129c4.54-4.419 9.35-6.359 15.58-6.359 15.72 0 25.59 12.859 25.59 33.38 0 21.04-10.91 35.33-26.24 35.33zm-2.46-56.63c-5.97 0-9.87 3.38-12.47 6.619v32.08c2.86 2.99 7.01 5.711 12.21 5.711 8.96 0 12.86-6.49 12.86-22.99-.01-11.81-2.34-21.42-12.6-21.42z" fill="#666"/><path opacity=".2" fill="#666" enable-background="new" d="M582 118l-50.4-50.4-28.8 28.8 50.4 50.4-50.4 50.4 28.8 28.8 79.2-79.2z"/><path fill="#666" d="M582 17.2l-28.8 28.8 50.4 50.4-50.4 50.4 28.8 28.801 79.2-79.201zM31.05 59.88c.36.56.52 1.05.72 2.09 1.4-1.37 3.13-2.09 5.02-2.09 1.71 0 3.11.56 4.19 1.68.29.29.57.65.82 1.01 1.88-1.93 3.57-2.69 5.83-2.69 1.61 0 3.14.48 4.07 1.28 1.16 1.01 1.53 2.22 1.53 5.03v14.65h-5.23v-13.6c0-2.46-.29-2.94-1.69-2.94-1.01 0-2.42.69-3.58 1.73v14.81h-5.1v-13.4c0-2.57-.37-3.17-1.87-3.17-1 0-2.37.51-3.53 1.56v15.01h-5.27v-14.37c0-2.97-.21-4.26-.77-5.27l4.86-1.32zm41.43 3.06c1.65 1.93 2.38 4.18 2.38 7.52 0 3.54-.81 5.96-2.59 7.97-1.56 1.77-3.62 2.86-6.79 2.86-5.6 0-9.25-4.18-9.25-10.66s3.69-10.79 9.25-10.79c2.94 0 5.24 1 7 3.1zm-9.69 2.97c-.37 1.09-.56 2.54-.56 4.59 0 2.37.24 4.15.68 5.19.49 1.13 1.7 1.69 2.73 1.69 2.34 0 3.34-2.09 3.34-6.96 0-2.78-.36-4.59-1.08-5.52-.52-.68-1.36-1.08-2.33-1.08-1.3 0-2.34.8-2.78 2.09zm29.42-5.67v3.7l-9.1 13.16h9.45l-1.29 3.74h-15.16v-3.34l9.69-13.48h-8.88v-3.78h15.29zm9.11-5.67c0 1.85-1.47 3.33-3.34 3.33-1.8 0-3.29-1.48-3.29-3.33s1.53-3.34 3.38-3.34c1.81 0 3.25 1.49 3.25 3.34zm-.63 5.19v21.08h-5.39v-20.24l5.39-.84zm9.82-3.34v16.05c0 3.55.04 4.021.37 4.59.21.37.64.56 1.09.56.2 0 .31 0 .6-.07l.92 3.22c-.92.36-2.05.56-3.22.56-2.3 0-4.15-1.08-4.79-2.81-.4-1.05-.49-1.69-.49-4.63v-15.38c0-2.7-.07-4.34-.27-6.2l5.51-1.25c.19 1.13.28 2.46.28 5.36zm11.18 0v16.05c0 3.55.05 4.021.38 4.59.19.37.63.56 1.08.56.2 0 .33 0 .61-.07l.92 3.22c-.92.36-2.05.56-3.22.56-2.3 0-4.15-1.08-4.79-2.81-.41-1.05-.48-1.69-.48-4.63v-15.38c0-2.7-.08-4.34-.29-6.2l5.5-1.25c.22 1.13.29 2.46.29 5.36zm8.46 4.59c2.01-.85 3.73-1.21 5.63-1.21 3.47 0 5.84 1.28 6.65 3.58.27.84.39 1.49.37 3.7l-.14 6.92v.37c0 2.21.37 3.06 1.94 4.22l-2.86 3.31c-1.26-.53-2.38-1.46-2.91-2.5-.4.41-.84.8-1.25 1.08-1 .73-2.46 1.13-4.15 1.13-4.59 0-7.08-2.34-7.08-6.43 0-4.84 3.35-7.09 9.9-7.09.4 0 .77 0 1.21.05v-.84c0-2.3-.45-3.06-2.43-3.06-1.71 0-3.74.84-5.95 2.33l-2.3-3.86c1.11-.7 1.91-1.1 3.37-1.7zm6.98 10.82c-3.73 0-5.04.68-5.04 3.14 0 1.6 1.02 2.69 2.39 2.69 1 0 2.01-.52 2.81-1.41l.09-4.43h-.25v.01z"/></svg>