<?xml version="1.0" encoding="utf-8"?>
<!DOCTYPE svg PUBLIC "-//W3C//DTD SVG 1.1//EN" "http://www.w3.org/Graphics/SVG/1.1/DTD/svg11.dtd" [
	<!ENTITY st0 "fill:#FCFCFC;">
]>
<svg version="1.1" id="Layer_1" xmlns="http://www.w3.org/2000/svg" xmlns:xlink="http://www.w3.org/1999/xlink" x="0px" y="0px"
	 width="150px" height="56.48px" viewBox="0 0 150 56.48" style="enable-background:new 0 0 150 56.48;" xml:space="preserve">
<g>
	<path style="&st0;" d="M50.93,38.59c-1.13-1.2-1.7-2.89-1.7-5.07c0-2.09,0.28-4.13,0.84-6.11c0.55-1.98,1.31-3.74,2.27-5.27
		c0.96-1.53,2.09-2.76,3.41-3.67c1.31-0.91,2.73-1.37,4.24-1.37c1.82,0,3.29,0.61,4.4,1.84c1.11,1.22,1.67,2.84,1.67,4.84
		c0,2.01-0.28,4-0.84,5.97c-0.55,1.98-1.31,3.77-2.26,5.34c-0.96,1.58-2.1,2.86-3.41,3.84c-1.32,0.98-2.71,1.47-4.17,1.47
		C53.54,40.39,52.06,39.79,50.93,38.59 M51.09,13.48c-2.23,1.25-4.14,2.89-5.74,4.94c-1.6,2.05-2.84,4.4-3.71,7.04
		c-0.87,2.65-1.3,5.37-1.3,8.18c0,1.78,0.27,3.41,0.8,4.91c0.53,1.49,1.3,2.78,2.3,3.87c1,1.09,2.2,1.94,3.6,2.54
		c1.41,0.6,2.97,0.9,4.71,0.9c2.22,0,4.25-0.53,6.07-1.6c1.82-1.07,3.41-2.45,4.74-4.14c0,3.83,2.36,5.74,7.08,5.74
		c1.02,0,1.97-0.09,2.84-0.27c0.87-0.18,1.75-0.38,2.64-0.6l1.34-4.94c-0.49,0.18-0.91,0.3-1.27,0.37c-0.36,0.06-0.76,0.1-1.2,0.1
		c-1.38,0-2.07-0.71-2.07-2.13c0-0.71,0.18-1.7,0.53-2.97c0.36-1.27,0.76-2.73,1.2-4.37l5.08-19.23c-0.67,0.22-1.47,0.39-2.41,0.5
		c-0.93,0.12-2,0.17-3.2,0.17h-3.34l-1.74,6.28c-0.57-2.27-1.69-4.03-3.34-5.28c-1.64-1.24-3.73-1.87-6.27-1.87
		C55.77,11.61,53.32,12.24,51.09,13.48 M128.17,39.75c-0.76-0.38-1.4-0.86-1.94-1.47c-0.53-0.6-0.93-1.3-1.2-2.1
		c-0.27-0.8-0.4-1.62-0.4-2.47c0-2,0.26-4,0.77-5.98c0.51-1.98,1.23-3.76,2.17-5.34c0.93-1.58,2.04-2.86,3.31-3.84
		c1.27-0.98,2.66-1.47,4.17-1.47c1.82,0,3.29,0.6,4.4,1.8c1.11,1.2,1.69,2.89,1.74,5.07c0,2.09-0.27,4.13-0.8,6.11
		c-0.53,1.99-1.28,3.73-2.24,5.24c-0.96,1.51-2.07,2.73-3.34,3.63c-1.27,0.91-2.62,1.37-4.04,1.37
		C129.79,40.32,128.93,40.13,128.17,39.75 M133.01,13.02c-1.67,0.93-3.15,2.16-4.44,3.67l1.33-4.88c-0.8,0.18-1.91,0.33-3.34,0.47
		c-1.42,0.13-2.96,0.2-4.61,0.2h-6.01l-1.34,5.01h3.81c0.4,0,0.66,0.15,0.77,0.43c0.11,0.29,0.06,0.81-0.17,1.57l-8.28,30.24
		c-0.22,0.76-0.45,1.23-0.7,1.44c-0.25,0.2-0.55,0.3-0.9,0.3h-2.94l-1.34,5.01h17.63l1.33-5.01h-3.41c-0.36,0-0.61-0.1-0.77-0.3
		c-0.16-0.2-0.12-0.68,0.1-1.44l2.94-10.95c0.58,2.14,1.71,3.85,3.41,5.14c1.69,1.29,3.87,1.93,6.54,1.93c2.71,0,5.15-0.6,7.31-1.8
		c2.16-1.2,4-2.8,5.51-4.81c1.51-2.01,2.67-4.3,3.47-6.91c0.8-2.61,1.2-5.33,1.2-8.18c0-1.78-0.26-3.44-0.77-4.97
		c-0.51-1.54-1.26-2.87-2.26-4.01c-1-1.13-2.23-2.02-3.67-2.64c-1.45-0.62-3.08-0.93-4.91-0.93
		C136.52,11.61,134.68,12.08,133.01,13.02 M99.55,13.15c-1.62,1.16-3.01,2.74-4.17,4.74l1.67-6.08c-0.8,0.18-1.92,0.33-3.34,0.47
		c-1.43,0.13-2.96,0.2-4.61,0.2h-6.21l-1.34,5.01h4c0.4,0,0.66,0.15,0.77,0.43c0.11,0.29,0.06,0.81-0.17,1.57L79.15,45h8.94
		l2.87-10.68c0.75-2.85,1.51-5.36,2.26-7.54c0.76-2.18,1.57-4.01,2.44-5.47c0.87-1.47,1.82-2.58,2.87-3.34
		c1.05-0.75,2.24-1.14,3.57-1.14c0.49,0,0.96,0.09,1.41,0.27c0.44,0.18,0.78,0.43,1,0.74c-1.15,0.18-2.1,0.71-2.83,1.6
		c-0.73,0.89-1.08,1.84-1.04,2.87c0.04,1.16,0.47,2.11,1.27,2.87c0.8,0.76,1.91,1.13,3.33,1.13c0.98,0,1.88-0.24,2.71-0.7
		c0.82-0.46,1.53-1.09,2.13-1.87c0.6-0.78,1.06-1.67,1.37-2.7c0.31-1.02,0.44-2.11,0.4-3.27c-0.09-1.87-0.73-3.39-1.93-4.58
		c-1.2-1.18-2.85-1.77-4.94-1.77C102.98,11.42,101.17,12,99.55,13.15 M17.86,0.47c-1.45,0.13-2.99,0.2-4.64,0.2H7.41l-1.4,5h3.47
		c0.44,0,0.71,0.15,0.8,0.44c0.09,0.29,0.02,0.81-0.2,1.57L0,45h8.88c1.24-4.94,2.48-9.16,3.7-12.65c1.22-3.49,2.46-6.35,3.7-8.58
		c1.25-2.23,2.52-3.85,3.81-4.87c1.29-1.02,2.63-1.54,4.01-1.54c1.02,0,1.89,0.3,2.6,0.9c0.72,0.6,1.07,1.48,1.07,2.64
		c0,0.53-0.14,1.3-0.4,2.3c-0.27,1-0.59,2.1-0.97,3.31c-0.38,1.2-0.79,2.47-1.24,3.8c-0.44,1.34-0.86,2.63-1.23,3.88
		c-0.38,1.24-0.7,2.39-0.97,3.44c-0.27,1.05-0.4,1.88-0.4,2.5c0,2.04,0.6,3.51,1.8,4.41c1.2,0.89,2.89,1.33,5.07,1.33
		c0.98,0,1.96-0.06,2.94-0.2c0.98-0.13,1.91-0.36,2.8-0.67l1.33-4.94c-0.89,0.31-1.71,0.47-2.47,0.47c-1.33,0-2-0.65-2-1.94
		c0-0.62,0.28-1.78,0.84-3.47c0.55-1.69,1.16-3.54,1.83-5.57c0.67-2.03,1.28-4.02,1.84-5.97c0.55-1.96,0.84-3.49,0.84-4.61
		c0-2.4-0.84-4.22-2.51-5.47c-1.67-1.24-3.7-1.87-6.11-1.87c-2.76,0-5.21,0.69-7.34,2.07c-2.14,1.38-4.05,3.38-5.74,6.01L21.16,0
		C20.4,0.18,19.31,0.33,17.86,0.47"/>
</g>
</svg>
