<svg xmlns="http://www.w3.org/2000/svg" viewBox="39 -18.3 121.7 81.3" enable-background="new 39 -18.3 121.7 81.3"><path d="M68.2 27.7c0 1.1-.4 1.7-1.3 1.7-.4 0-.8-.2-1-.5.2-.1.4-.3.6-.7.2-.3.3-.7.3-1s-.1-.6-.3-.8c-.2-.2-.4-.3-.8-.3s-.7.1-1 .4-.6.6-.9 1c-.6.9-1 2-1.4 3.3s-.5 2.6-.5 3.6c0 1.1.2 1.9.5 2.4s.9.7 1.6.7c1.5 0 2.8-.6 3.7-1.8l.4.2c-.6 1.5-1.7 2.5-3.3 3.1-.6.2-1.3.3-1.9.3h-.1c-1.4 0-2.4-.4-3-1.1-.6-.7-1-1.8-1-3.3s.3-3.1.8-4.6c.6-1.8 1.5-3.2 2.6-4.1.9-.7 1.9-1 3-1 1.4 0 2.4.4 2.8 1.3.2.4.2.8.2 1.2zm9.7 4.3c-.7.8-1.8 1.3-3.3 1.5-.1 1.7-.6 3-1.4 4s-1.8 1.5-3 1.5c-1.4 0-2.3-.5-2.7-1.6-.1-.4-.2-.8-.2-1.2s0-.9.1-1.4c.1-.5.2-.9.4-1.4.4-1.1.9-2 1.6-2.7.8-.8 1.8-1.2 3-1.2 1.6 0 2.4 1 2.4 2.9h.3c.3 0 .8-.1 1.3-.3.5-.2 1-.5 1.5-.8v.7zm-4.8 1.6c-.3-.1-.5-.4-.5-.8 0-.5.2-.8.6-1 0-.4-.1-.7-.2-.8-.1-.1-.3-.2-.6-.2-.6 0-1.1.6-1.6 1.9-.5 1.2-.8 2.3-.8 3.3 0 .6.1 1 .2 1.1.1.1.2.3.3.3s.3.1.5.1c.4 0 .8-.4 1.2-1.1.5-.8.8-1.7.9-2.8zm13.1-5.6v-.5s-.1-.3-.2-.4c-.1-.1-.3-.2-.4-.2-.7 0-1.1.5-1.3 1.5l-.3 1.5h1.8l-.2.7h-1.8l-2.1 9.9c-.2 1.2-.7 2-1.4 2.5-.5.4-1.2.6-1.9.6-1 0-1.7-.4-2-1.2-.6.8-1.4 1.2-2.5 1.2-.6 0-1.1-.2-1.5-.6-.4-.4-.7-.8-.7-1.3s.1-.9.2-1.2c.2-.3.4-.6.8-.8.4-.3 1.1-.5 2.1-.9l2.2-10.5c.4-2.1 1.6-3.1 3.3-3.1.4 0 .8.1 1.2.3s.6.5.8.8c.6-.8 1.4-1.2 2.5-1.2.6 0 1.1.2 1.5.6.4.4.7.8.7 1.4 0 .3 0 .5-.1.8h-.7v.1zm-11.3 11.5c-.7.2-1.1.4-1.4.6-.5.4-.7.8-.7 1.2 0 .2.1.4.4.6.1 0 .2.1.4.1s.3-.1.5-.3.4-.6.5-1.1l.3-1.1zm2 2.1c.2.2.5.4 1.1.4.2 0 .4-.1.6-.3s.4-.6.5-1.1l.4-2.1-1.9.3-.3 1.7c-.1.4-.2.8-.4 1.1zm4.3-11h-1.8l-1.6 7.8 1.9-.3 1.5-7.5zm0-.8l.4-1.9v-.5s-.1-.3-.2-.4c-.1-.1-.3-.2-.4-.2-.7 0-1.1.5-1.3 1.5l-.3 1.5h1.8zm11.4 5.9c-1.4 2.3-3.1 3.4-5.1 3.4-.9 0-1.6-.2-2.1-.7s-.8-1.2-.8-2.2c0-1.4.4-2.8 1.1-4.1.5-1 1.3-1.7 2.2-2.1.5-.2 1-.3 1.5-.3.8 0 1.4.2 1.7.5s.5.7.5 1.3c0 1-.4 1.9-1.3 2.7-.8.7-1.8 1.1-3 1.2v.7c0 .6.1 1 .3 1.2.2.2.5.3.9.3.7 0 1.3-.2 1.8-.5s1-.8 1.5-1.4h.8zm-2.4-4.4c0-.4-.2-.7-.5-.7-.4 0-.9.4-1.3 1.2-.4.8-.7 1.6-.9 2.6.7 0 1.3-.4 1.9-1 .7-.6.8-1.3.8-2.1zm4.3 4.6c0 1 .4 1.5 1.2 1.5.3 0 .7-.1 1.1-.3.4-.2.7-.4 1-.7-.3 1.8-1.4 2.7-3.2 2.7-.9 0-1.6-.2-2.1-.7s-.8-1.2-.8-2.2c0-1.4.4-2.8 1.1-4.1.5-1 1.3-1.7 2.2-2.1.5-.2 1-.3 1.5-.3.8 0 1.4.2 1.7.5.3.3.5.7.5 1.3 0 1.1-.4 1.9-1.3 2.7-.8.7-1.8 1.1-3 1.2.1.1.1.3.1.5zm2.7-4.6c0-.4-.2-.7-.5-.7-.6 0-1.1.7-1.7 2-.2.6-.4 1.2-.5 1.8.7 0 1.3-.3 1.9-1 .6-.5.8-1.3.8-2.1zm8.2-2.4c.6-.3.8-.9.8-1.7 0-.2-.1-.5-.3-.7-.2-.3-.6-.4-1.1-.4s-.9.1-1.2.4c-.3.3-.5.6-.5 1.1s.1.8.2 1.1c.2.5.6 1 1.1 1.5l.8.7c.7.6 1.1 1.1 1.4 1.5.5.8.7 1.6.7 2.4 0 1.5-.5 2.7-1.6 3.5-1 .8-2.1 1.1-3.6 1.1-1.8 0-3-.6-3.6-1.7-.2-.4-.3-.9-.3-1.4 0-1 .3-1.7.8-2.3.6-.5 1.2-.8 1.8-.8s1.2.2 1.5.6c.1.2.2.4.2.6-.9 0-1.6.3-2 .9-.1.2-.2.5-.2.7 0 .5.2 1 .5 1.3s.8.5 1.4.5c.6 0 1.1-.2 1.5-.6.4-.4.6-1 .6-1.6s-.1-1.2-.3-1.6c-.2-.4-.4-.8-.7-1.2-.3-.4-.6-.7-.9-1l-.9-1c-.7-.8-1-1.6-1-2.3 0-.9.4-1.7 1.2-2.4.8-.6 1.8-.9 3-.9 1.5 0 2.4.4 2.8 1.3.1.2.2.6.2 1s-.1.8-.4 1.2c-.3.3-.6.5-1 .5-.4.1-.7 0-.9-.3zm7.4.8c1.5 0 2.2.6 2.2 1.7 0 .5-.1.8-.3 1-.2.2-.4.3-.7.3-.3 0-.5-.1-.7-.2.1-.4.2-.8.2-1.1 0-.5-.2-.8-.5-.8s-.7.3-1.1 1c-.6.9-.9 2-1.1 3.3-.1.4-.1.8-.1 1.3 0 .9.4 1.3 1.3 1.3.7 0 1.3-.2 1.8-.5s1-.8 1.5-1.4h.6c-1.4 2.3-3.1 3.4-5.1 3.4-.9 0-1.6-.2-2.1-.7s-.8-1.2-.8-2.2c0-1.4.4-2.8 1.1-4.1.5-1 1.3-1.7 2.2-2.1.6-.1 1-.2 1.6-.2zm1.8 9.3l1.9-9.2h2.6l-.2 1.1c.3-.3.6-.5 1-.8.4-.3.8-.4 1.2-.4s.7.1 1 .4c.2.3.3.6.3.8 0 .4-.1.8-.4 1.1s-.5.4-.9.4c-.3 0-.6-.1-.7-.2-.1-.2-.2-.3-.2-.5s-.1-.3-.1-.4-.1-.1-.2-.1c-.3 0-.5.1-.7.2s-.4.3-.7.5l-1.5 7-2.4.1zm13.3-3.3c-.8 2.3-2.1 3.4-4 3.4-.5 0-.9-.2-1.3-.5s-.6-.9-.6-1.7c0-.3 0-.7.1-1.2l1.2-5.9h2.8l-1.3 6.2c0 .2-.1.4-.1.7 0 .4.2.6.7.6.4 0 .7-.2 1-.5s.5-.7.7-1.2h.8v.1zm-1.2-8.3c0 .4-.1.7-.4 1s-.6.4-1 .4-.7-.1-1-.4-.4-.6-.4-1 .1-.7.4-1 .6-.4 1-.4.8.1 1 .4c.3.2.4.6.4 1zm2.5 11.1l-1 4.5-2.8.7 3.1-14.5h2.6l-.3 1.4c.6-.5 1.3-.8 2.1-.8 1.1 0 1.7.5 2.1 1.5.1.4.2.8.2 1.3s0 1-.1 1.4c-.1.5-.2 1-.3 1.4-.1.5-.3.9-.5 1.4-.2.4-.5.8-.8 1.2-.3.3-.7.6-1.2.8s-1 .3-1.7.3-1.2-.2-1.4-.6zm3.5-5.9c0-1-.3-1.5-.9-1.5-.2 0-.4.1-.7.2-.2.1-.4.4-.6.7l-1.1 5.1c.1.3.4.4.8.4s.8-.2 1.1-.5c.6-.7 1.1-1.7 1.2-2.9.2-.6.2-1.1.2-1.5zm4.2-2h-.6l.2-.7h.6l.6-2.5 2.7-.4-.6 2.9h1.1l-.1.7h-1.1l-1.2 5.5c-.1.2-.1.4-.1.6s0 .4.1.5.2.2.5.2c.2 0 .4 0 .5-.1-.4 1-.8 1.6-1.5 1.7l-.5.1c-.7 0-1.1-.2-1.4-.6-.3-.4-.4-.8-.4-1.3s0-.8.1-1.2l1.1-5.4zm-39.8-28.5c-.3-.2-.8-.3-1.5-.3-.2 0-.4 0-.6.1s-.3.2-.3.4.1.3.4.4c.2.1.6.2 1 .2s.7 0 .9-.1c.4-.1.9-.2 1.3-.4l.6-.3c.5-.2 1.2-.7 1.6-.8.7-.2 1.4-.3 2.1-.3 1.3 0 2.4.2 3.1.6.7.3.8 1.1.8 1.6 0 .6-.5 1.1-1.5 1.3-.5.1-.9.2-1.4.2-.8 0-1.5-.1-2-.3-.5-.2-.7-.4-.7-.7 0-.2.2-.4.5-.5.1 0 .3-.1.5-.1 0 .3.3.6.8.7.2 0 .4.1.7.1.5 0 .8-.1 1.1-.2.3-.1.5-.3.5-.5s-.2-.4-.6-.5c-.4-.1-.8-.2-1.4-.2-.6 0-1 0-1.4.1-.4.1-.7.2-1 .3l-.9.3-.9.3c-.7.2-1.4.4-2 .4-.8 0-1.5-.1-2.1-.4-.6-.3-.8-.7-.8-1.1 0-.5.4-.9 1.2-1 .2 0 .5-.1.9-.1s.7 0 1 .1.5.2.5.4-.1.2-.4.3zm3.4 6.2c-9.7 0-11-2.3-11-2.3 0 1.2.3 2.4.7 3.5-.6.5-2.2 2-2.2 4.2 0 2.8 3.3 4.5 5.5 3.1 0 0-3.7-.5-3.7-3.8 0-1.2.4-2 1-2.5.9 2 2.2 3.5 2.6 4.1.8 1 1 .7 1.5 2.6.4 1.6 4 2.5 6 2.5 2-.1 5.3-.9 5.7-2.5.5-2 .5-1.6 1.3-2.6s3.8-4.7 3.8-8.7c-.2.1-1.5 2.4-11.2 2.4zm.3-1.4v1.5h-.4.4v-1.5c11 0 11-3 11-3l-1.3-1.3c2.7 2.7-8.6 3-9.9 3s-12.7-.3-9.9-3l-1 1.3c-.2 0-.9 2.9 11.1 3z"/></svg>
