<svg xmlns="http://www.w3.org/2000/svg" viewBox="0 0 388 258" enable-background="new 0 0 388 258"><path d="M93.3 133.8c0 4.6-1 8.4-2.3 8.4-1.3 0-2.3-3.8-2.3-8.4s1-8.4 2.3-8.4c1.3 0 2.3 3.8 2.3 8.4zm23.7 0c0 4.6 1 8.4 2.3 8.4s2.3-3.8 2.3-8.4-1-8.4-2.3-8.4-2.3 3.8-2.3 8.4zm39.1-16.2l-9.1 60.4h-16.9l1.7-14.2h-7.9l-1.1 14.2h-34.8l-1-14.2h-8.4l1.7 14.2h-16.9l-9.2-60.4 23.3-37.6h55.4l23.2 37.6zm-18.7-.3l-9.3-18.2h-14.6l1.2 6.6h-19.1l1.2-6.6h-14.6l-9.3 18.2 4.5 37.3h55.4l4.6-37.3zm56 12.4c-.9-4.4-4.4-7.1-9.2-7.1-6.4 0-10.5 4.6-10.5 12.1 0 7.4 3.9 12 10.2 12 5.3 0 8.9-3.2 9.7-8.8h-2.3c-.7 4.2-3.5 6.8-7.4 6.8-4.9 0-8-3.9-8-10 0-6.3 3.1-10.2 8-10.2 3.5 0 6.1 1.9 6.9 5.1h2.6zm14-7.1c-6.4 0-10.7 4.8-10.7 12s4.3 12.1 10.7 12.1c6.3 0 10.7-4.8 10.7-11.9 0-7.4-4.2-12.2-10.7-12.2zm0 2c2.5 0 4.9 1.1 6.3 3 1.4 1.8 2.1 4.2 2.1 7.2 0 6-3.4 10-8.4 10-5.1 0-8.4-4-8.4-10.1 0-2.9.7-5.4 2.1-7.1 1.6-1.9 3.9-3 6.3-3zm17.4 11.2h7.2c3.2 0 4.2 1.2 4.5 5.2l.2 2.6c.1 1.1.2 1.8.6 2.6h3c-1-.9-1.3-1.5-1.4-3.3l-.2-3c-.2-2.9-1-4.3-2.9-5.1 2.6-1.2 3.6-2.8 3.6-5.6 0-2-.6-3.6-1.9-4.6-1.3-1-2.7-1.4-5.4-1.4h-9.7v23.1h2.3v-10.5zm0-1.8v-8.8h7c2.1 0 3.3.3 4.1 1.1.9.8 1.3 1.9 1.3 3.3s-.5 2.6-1.3 3.3c-.9.8-2 1.1-4.1 1.1h-7zm19.6 12.2h8c4 0 6.3-1 8-3.3 1.6-2.1 2.4-5 2.4-8.3 0-3.2-.7-5.8-2-7.9-1.6-2.4-4.1-3.6-7.9-3.6h-8.4v23.1zm2.3-1.9v-19.1h6c2.7 0 4.5.7 5.8 2.2 1.3 1.5 2 4.2 2 7.4 0 3-.6 5.2-1.9 7-1.4 1.9-3.2 2.6-6.8 2.6h-5.1zm30.1-21.7c-6.4 0-10.7 4.8-10.7 12s4.3 12.1 10.7 12.1c6.3 0 10.7-4.8 10.7-11.9.1-7.4-4.2-12.2-10.7-12.2zm0 2c2.5 0 4.9 1.1 6.3 3 1.4 1.8 2.1 4.2 2.1 7.2 0 6-3.4 10-8.4 10-5.1 0-8.4-4-8.4-10.1 0-2.9.7-5.4 2.1-7.1 1.6-1.9 3.9-3 6.3-3zm22.7 21.6l8.3-23.1h-2.5l-5.3 15.9c-.6 1.7-.7 2-1.6 4.7l-.6-1.8c-.5-1.5-.5-1.5-1-2.9l-5.5-15.9h-2.5l8.5 23.1h2.2zm22.4-7.2l2.8 7.3h2.4l-9.1-23.1h-2.4l-8.9 23.1h2.4l2.7-7.3h10.1zm-.7-1.9h-8.7l4.3-11.6 4.4 11.6zm-142.5-19.8l.4 1.6h2l-2.5-7.9h-2.2l-2.8 7.9h1.9l.5-1.6h2.7zm-.4-1.4h-1.8l1-3.1.8 3.1zm5.6.3h1.7c.9 0 1.5-.2 2-.7.5-.5.7-1.1.7-1.8 0-.9-.3-1.6-.9-2.1-.5-.5-1.1-.6-2.2-.6h-3.1v7.9h1.8v-2.7zm0-1.5v-2.2h1.4c.7 0 1.1.4 1.1 1.1 0 .7-.4 1.1-1.1 1.1h-1.4zm9.3 2.6l.4 1.6h2l-2.5-7.9h-2.2l-2.8 7.9h1.9l.5-1.6h2.7zm-.4-1.4h-1.8l1-3.1.8 3.1zm10.5-2.4c-.2-1.7-1.5-2.7-3.4-2.7-2.4 0-3.8 1.6-3.8 4.1 0 2.5 1.5 4.2 3.8 4.2 2 0 3.3-1.1 3.5-2.9h-1.9c-.2 1-.8 1.4-1.7 1.4-1.3 0-2-1-2-2.6 0-1.7.8-2.6 2.1-2.6.8 0 1.4.4 1.6 1.2h1.8zm6 2v3.4h1.8v-7.9h-1.8v3h-2.9v-3h-1.8v7.9h1.8v-3.4h2.9zm9.5-4.5h-5.9v7.9h6v-1.5h-4.2v-1.9h3.6v-1.4h-3.6v-1.5h4.1v-1.6zm107.2 13.5h1.6v-1.1h-4.6v1.1h1.6v4.1h1.3v-4.1zm5.7 4.1l.8-2.8s0-.1.1-.2c0 0 0-.1.1-.2v3.2h1.2v-5.2h-1.9l-.7 2.7s-.1.2-.1.3c0 .1-.1.3-.1.3 0 .1 0 .2-.1.3l-.2-.9-.7-2.7h-1.8v5.2h1.2v-3.2l.1.4.7 2.8h1.4z"/></svg>