<svg xmlns="http://www.w3.org/2000/svg" viewBox="39 -18.3 121.7 81.3" enable-background="new 39 -18.3 121.7 81.3"><path d="M124.7 14.9c2.6 0 4 1.4 4.7 2.4.9 1.4 1.4 3.1 1.4 5.6 0 2.9-.7 4.7-2.2 6.1-1.1 1-2.3 1.4-3.8 1.4-1.8 0-3.3-.7-4.3-1.9-1.2-1.4-1.8-3.4-1.8-5.9 0-4.7 2.3-7.7 6-7.7zm0 1.5c-1.4 0-2.6.7-3.2 1.8-.5 1-.8 2.3-.8 4.1 0 2.3.4 4.2 1 5.2s2 1.6 3.2 1.6 2.1-.4 2.8-1.3c.7-.9 1.1-2.1 1.1-4.6 0-2.2-.2-3.7-.7-4.8-.6-1.1-1.7-2-3.4-2zm16.7-.1l-.8 1.3c-1.4-.9-2.4-1.3-3.7-1.3-1.9 0-3 .9-3 2.5 0 1.2.7 1.9 2.5 2.4l1.7.5c1.3.4 2 .8 2.6 1.5s1 1.7 1 2.6c0 1.4-.7 2.8-2.1 3.6-1 .6-2 .9-3.4.9-1.8 0-3.3-.4-4.8-1.4l.8-1.4c1.2.9 2.5 1.3 4 1.3 1.1 0 1.7-.2 2.4-.7s1.1-1.3 1.1-2.1c0-1.3-.9-2.3-2.7-2.8l-1.5-.5c-1.4-.4-2.1-.7-2.7-1.3-.6-.7-.9-1.5-.9-2.4 0-2.6 1.9-4.3 4.9-4.3 1.7.2 3.2.7 4.6 1.6zm-75.5.7h-5.3v4.2h4.3v2.1h-4.3v7.1h-2.6v-15.5h8.2l-.3 2.1zm1.4-1.2c0-.9.7-1.7 1.6-1.7s1.6.7 1.6 1.7c0 .9-.7 1.6-1.7 1.6-.8 0-1.5-.7-1.5-1.6zm.3 14.7v-11.2l2.5-.5v11.7h-2.5zm10.2-9.2c-.2-.1-.4-.2-.7-.2-1 0-1.9.8-2.1 1.7v7.7h-2.5v-8c0-1.4-.2-2.4-.4-3.1l2.3-.6c.3.5.4 1.2.4 1.8.9-1.2 1.8-1.8 2.9-1.8.4 0 .6 0 .9.2l-.8 2.3zm3.1 4.2v.2c0 1.6.6 3.2 2.8 3.2 1.1 0 2-.4 2.8-1.1l1 1.5c-1.2 1-2.6 1.5-4.1 1.5-3.2 0-5.2-2.3-5.2-6 0-2 .4-3.3 1.4-4.5.9-1.1 2-1.5 3.5-1.5 1.1 0 2.2.3 3.1 1.2 1 .9 1.5 2.3 1.5 5v.5h-6.8zm2.2-4.8c-1.4 0-2.2 1.1-2.2 2.9h4.2c.1-1.8-.7-2.9-2-2.9zm11.7-4.5c-.6-.3-.9-.4-1.4-.4-.9 0-1.4.6-1.4 1.6v1.7h3l-.6 1.7h-2.3v9.7h-2.5v-9.7h-1.1v-1.7h1.1s-.1-.6-.1-1.7c0-2.4 1.4-3.5 3.5-3.5 1 0 1.8.2 2.6.7l-.8 1.6zm9.9 8.6c0 3.7-2 5.9-5 5.9-3.1 0-5-2.3-5-6 0-3.6 2-6 5-6 3.1.1 5 2.5 5 6.1zm-7.3-.1c0 3.3.8 4.3 2.3 4.3s2.3-1.2 2.3-4c0-3.2-.9-4.2-2.3-4.2-1.6-.1-2.3 1.1-2.3 3.9zm14.7 5.8c-.4-.7-2.3-3.8-2.5-4.3-.4.9-2.1 3.6-2.5 4.3h-3.1l4.2-6.2-3.3-4.9 2.7-.5c.5.9 1.5 2.6 2.1 3.7.3-.7 1.5-3 1.8-3.5h2.9l-3.4 5.2 4.2 6.2h-3.1z"/></svg>