<svg xmlns="http://www.w3.org/2000/svg" viewBox="39 -18.3 121.7 81.3" enable-background="new 39 -18.3 121.7 81.3"><path d="M74.7 21.1v10.6c0 .1 0 .2-.1.2 0 0-2.3 1.6-6.1 1.6-4.6 0-10.1-1.4-10.1-10.9s4.8-11.5 9.4-11.5c4 0 5.6.9 5.9 1.1.1.1.1.2.1.3l-.8 3.3c0 .2-.2.4-.4.3-.6-.2-1.7-.6-4-.6-2.7 0-5.6.8-5.6 6.9 0 6.1 2.8 6.8 4.8 6.8 1.7 0 2.3-.2 2.3-.2v-4.2h-2.7c-.2 0-.3-.1-.3-.3v-3.4c0-.2.1-.3.3-.3h7c.2-.1.3.1.3.3zm35.6-8.8c0-.2-.1-.3-.3-.3h-4c-.2 0-.3.1-.3.3v7.6h-6.1v-7.6c0-.2-.1-.3-.3-.3h-3.9c-.2 0-.3.1-.3.3v20.5c0 .2.1.3.3.3h3.9c.2 0 .3-.1.3-.3v-8.8h6.1v8.8c0 .2.1.3.3.3h3.9c.2 0 .3-.1.3-.3v-20.5zm-28.5 2.7c0-1.4-1.1-2.6-2.5-2.6s-2.5 1.1-2.5 2.6c0 1.4 1.1 2.6 2.5 2.6 1.4-.1 2.5-1.2 2.5-2.6zm-.3 13.5v-9.5c0-.2-.1-.3-.3-.3h-3.9c-.2 0-.3.2-.3.4v13.6c0 .4.2.5.6.5h3.5c.4 0 .5-.2.5-.5-.1-.8-.1-3.7-.1-4.2zm43.7-9.8h-3.9c-.2 0-.3.1-.3.3v10.1s-1 .7-2.4.7-1.8-.6-1.8-2v-8.8c0-.2-.1-.3-.3-.3h-3.9c-.2 0-.3.1-.3.3v9.4c0 4.1 2.3 5.1 5.4 5.1 2.6 0 4.6-1.4 4.6-1.4s.1.7.1.8c0 .1.2.2.3.2h2.5c.2 0 .3-.1.3-.3v-13.8c0-.1-.2-.3-.3-.3zm16.1 6.7c0 6.3-2 8.1-5.6 8.1-3 0-4.6-1.5-4.6-1.5s-.1.8-.2.9c-.1.1-.2.2-.3.2h-2.7c-.2 0-.3-.1-.3-.3v-20.5c0-.2.1-.3.3-.3h3.9c.2 0 .3.1.3.3v6.9s1.5-1 3.7-1 5.5.9 5.5 7.2zm-4.6.2c0-3.3-1.3-3.8-2.8-3.6-1.1.1-2 .7-2 .7v6.5s.9.6 2.3.7c1.9 0 2.5-.7 2.5-4.3zm-43.9-6.9h-2.9v-3.9c0-.1-.1-.2-.2-.2h-4c-.2 0-.2.1-.2.2v4s-2 .5-2.1.5c-.1 0-.2.2-.2.3v2.5c0 .2.1.3.3.3h2.1v6.1c0 4.5 3.2 4.9 5.3 4.9 1 0 2.1-.3 2.3-.4.1 0 .2-.2.2-.3v-2.8c0-.2-.2-.3-.3-.3-.2 0-.6.1-1.1.1-1.4 0-1.9-.7-1.9-1.5v-5.8h2.9c.2 0 .3-.1.3-.3v-3.1c-.2-.2-.4-.3-.5-.3z"/></svg>