<svg xmlns="http://www.w3.org/2000/svg" width="32" height="32" viewBox="0 0 32 32"><path d="M15 0c-8.28 0-15 6.89-15 15.38 0 6.8 4.3 12.56 10.26 14.59.75.14 1.02-.33 1.02-.74l-.02-2.61c-4.17.93-5.05-2.07-5.05-2.07-.68-1.77-1.67-2.25-1.67-2.25-1.36-.95.11-.93.11-.93 1.5.11 2.29 1.59 2.29 1.59 1.34 2.35 3.52 1.67 4.37 1.27.14-.99.52-1.67.95-2.05-3.33-.39-6.83-1.71-6.83-7.6 0-1.68.58-3.06 1.54-4.13-.15-.39-.67-1.95.15-4.07 0 0 1.26-.41 4.13 1.58 1.19-.35 2.48-.52 3.75-.52s2.56.17 3.76.52c2.86-1.99 4.12-1.58 4.12-1.58.82 2.12.3 3.68.15 4.07.96 1.07 1.54 2.45 1.54 4.13 0 5.9-3.51 7.2-6.85 7.58.54.48 1.02 1.42 1.02 2.85 0 2.06-.02 3.72-.02 4.22 0 .41.27.89 1.03.74 5.96-2.04 10.25-7.8 10.25-14.59 0-8.49-6.72-15.38-15-15.38"/></svg>