<svg xmlns="http://www.w3.org/2000/svg" viewBox="39 -18.3 121.7 81.3" enable-background="new 39 -18.3 121.7 81.3"><path d="M67 15.6c1.8-2.9 4.2-4.4 7.2-4.4 2.6 0 4.7 1.4 4.7 4 0 2.5-2.9 9.4-2.9 10.8 0 .8.4 1.1 1.1 1.1.5 0 .8-.1 1.4-.3l-.7 2.7c-1 .3-2.1.5-3.2.5-2.4 0-3.8-.9-3.8-3.2 0-2.1 2.9-8.8 2.9-10.6 0-1.3-.9-1.9-2-1.9-3 0-5.6 4.3-8.4 15.2h-4.9l5.5-20.5c.2-.8.1-1.1-.3-1.1h-1.9l.8-2.8h3.2c1.8 0 3.5-.2 4.4-.4l-3.1 10.9zm13.7 7.7c0-6.2 4-12.1 9.9-12.1 2.8 0 4.7 1.5 5.3 3.9l1-3.4h1.8c1.3 0 2.3-.1 3.1-.4l-2.8 10.6c-.5 1.8-1 3.3-1 4 0 .8.4 1.2 1.1 1.2.5 0 .8-.1 1.4-.3l-.7 2.7c-1 .3-1.9.5-3 .5-2.5 0-3.9-1.1-3.9-3.2-1.5 1.9-3.5 3.2-5.9 3.2-3.8 0-6.3-2.9-6.3-6.7zm14.1-5.5c0-2.2-1.4-3.7-3.3-3.7-3.3 0-5.9 4.4-5.9 9 0 2.4 1.4 3.8 3.4 3.8 3.2.1 5.8-4.7 5.8-9.1zm16.6-3.2c1.3-2.2 3.1-3.6 5.3-3.6 2.3 0 3.7 1.4 3.8 3.5.1 2.5-1.5 4.7-3.6 4.7-1.6 0-2.5-.9-2.5-2.2 0-1.1.8-2.3 2.1-2.5-.2-.3-.8-.6-1.3-.6-3 0-4.4 3.4-6.1 9.6l-1.6 5.9h-4.9l3.9-14c.2-.8.1-1.1-.3-1.1h-2.2l.7-2.8h3.4c1.8 0 3.5-.2 4.4-.4l-1.1 3.5zm5.6 18.5h1.6c.4 0 .7-.1.9-1l4.6-16.6c.2-.8.1-1.1-.3-1.1h-2.1l.7-2.8h3.3c1.8 0 3.5-.2 4.4-.4l-.7 2.7c1.4-1.6 3.3-2.8 5.5-2.8 4 0 6.4 2.9 6.4 6.9 0 6.2-3.7 11.9-9.6 11.9-2.9 0-4.8-1.5-5.5-3.9l-1.6 6c-.2.8 0 1 .4 1h1.9l-1 2.8h-9.7l.8-2.7zm19.2-15.2c0-2.4-1.4-3.8-3.4-3.8-3.3 0-5.8 4.8-5.7 9.1 0 1.9 1.3 3.6 3.4 3.6 3.1.1 5.7-4.2 5.7-8.9zm-57.2 17.3c0 .7-.2 1.3-.5 1.7-.4.4-.9.6-1.6.6h-.3v2.5h-1.3v-6.8h1.7c1.3-.1 2 .6 2 2zm-2.4 1.1h.2c.3 0 .5-.1.7-.3.1-.2.2-.4.2-.8s-.1-.6-.2-.8c-.1-.2-.4-.3-.6-.3h-.3v2.2zm3.2 3.6v-6.8h1.3v5.7h1.7v1.1h-3zm7.4 0l-.4-1.7h-1.8l-.4 1.7h-1.3l1.7-6.8h1.7l1.7 6.8h-1.2zm-.6-2.9l-.4-1.6c0-.1-.1-.3-.1-.7-.1-.4-.1-.6-.1-.8 0 .3-.1.6-.2.9-.1.3-.2 1.1-.5 2.2h1.3zm4.2 2.9h-1.3v-5.7h-1.3v-1.1h3.9v1.1h-1.3v5.7zm3.3 0h-1.3v-6.8h3v1.1h-1.8v1.9h1.7v1.1h-1.7c.1-.1.1 2.7.1 2.7zm7.3-3.4c0 1.1-.2 2-.6 2.6-.4.6-1 .9-1.8.9s-1.4-.3-1.8-.9c-.4-.6-.6-1.5-.6-2.6s.2-2 .6-2.6c.4-.6 1-.9 1.8-.9s1.4.3 1.8.9c.4.6.6 1.4.6 2.6zm-3.6 0c0 .8.1 1.4.3 1.8.2.4.5.6.9.6.8 0 1.1-.8 1.1-2.4 0-1.6-.4-2.4-1.1-2.4-.4 0-.7.2-.9.6-.2.4-.3 1-.3 1.8zm5.8.7v2.6h-1.3v-6.8h1.6c.7 0 1.2.2 1.5.5s.5.8.5 1.5c0 .9-.3 1.5-.9 1.8l1.3 3h-1.4l-1.1-2.6h-.2zm0-1.1h.3c.3 0 .5-.1.6-.3.1-.2.2-.4.2-.8 0-.3-.1-.6-.2-.7-.1-.1-.3-.2-.6-.2h-.3v2zm6.3 3.8l-1.3-5.8c.1.4.1.9.1 1.2v4.6h-1.2v-6.8h1.9l1.2 5.3 1.2-5.3h2v6.8h-1.2v-4.6c0-.4 0-.8.1-1.2l-1.3 5.8h-1.5z"/></svg>