<svg xmlns="http://www.w3.org/2000/svg" viewBox="39 -18.3 121.7 81.3" enable-background="new 39 -18.3 121.7 81.3"><path d="M88.5 23.1c0-1-.1-1.9-.1-2.4 0-.6.4-.7.4-.7.2-.1.4-.2.7-.3.1 0 .2.1.2.2-.7 2.9-.6 6-.6 9v3.8c0 .6 0 1.6-.5 2.1-.8.9-2.9.6-3.2-.7-.3-1.1-.1-2.2-.3-3.3-.1-.8-.2-1.8.4-2.5.8-.8.6 1.4.6 1.7v2.3c0 .6 0 1.8.6 2.1 1.2.7 1.4-1.5 1.4-2.2l.1-3.5c.1-.9.1-1.8.2-2.6v-1.6l.1-1.4zm5.5 3.8c.2.4.2 1 .2 1.5 0 .6-.1 1.2-.2 1.9-.2 1.2-.5 2.4-.3 3.6v.3l.1.2c0 .1 0 .2-.1.2l-.4.3c-.4.1-.8.1-1.2 0-.9-.2-1.6-.8-1.7-1.8 0-.3 0-.6-.1-.9l-.1-.9c0-.5.1-1 .5-1.4.3-.2.8-.4 1.2-.5h.9c.1 0 .3 0 .4-.1s.1-.2.1-.3c0-.3 0-.7-.1-1-.3-1-1.5-.3-2.1-.2-.3.1-.5-.1-.6-.3-.1-.3.1-.5.3-.7.3-.2.7-.4 1.1-.5.8-.2 1.7-.2 2.1.6zm-.8 3.7c-.2-.4-.6-.3-.9-.2-.7.2-1.2.5-1.3 1.2-.1.6 0 1.3.2 1.8.1.3.3.4.6.5.2.1.6.2.8.1.3-.2.3-.7.4-1l.2-1.5c.1-.3.1-.6 0-.9zm-2.1-2.7c-.3.1.4-.1 0 0zm6.6 19.6c.1-.3.3-.6.3-1 0-.3-.4-.5-.6-.6-.5-.2-1.1.3-.8.8 0 .3 0 .5.2.7l1.4.9c.1.1.3 0 .2-.2l-.7-.6zm13.4-23.6c-1-.2-2-.5-3-.3-.4.1-2 .4-1.1.9h.1c.7 1.4 2.4 1.4 3.8 1.6.8.1 1.7.2 2.4-.3.3-.2.3-.6 0-.8-.6-.7-1.4-.9-2.2-1.1zm-9.5 10.1c.2-.1.5-.1.7-.1s.5.2.3.3c-.1.1-.3.2-.5.2-.2.1-.4.2-.6.2-.7.3-1.7.4-2.2-.4-.2-.3-.2-.8-.3-1.3v-1.7c0-.9-.1-1.9.4-2.7.3-.5 1-1.3 1.6-.9.5.3.8 1 1 1.6.2.4.6 1.3.2 1.7-.2.2-.5.2-.8.2-.4 0-.9-.1-1.3 0-.5.1-.4.5-.4.9 0 .5.1 1.1.2 1.6.1.3.3.7.7.8.3-.2.7-.3 1-.4.4-.1-.8.3 0 0zm-1.9-5.1c-.2.5-.2 1.1-.1 1.6.4-.1.8.1 1.2.1h.6c.1 0 .2 0 .3-.1.3-.2.1-.8 0-1-.3-.7-1.6-1.5-2-.6-.2.5.3-.8 0 0zm26.5 17.1c-.7.5-.4 1.2-.8 1.8-.5.5-1.6.5-2.2.5-2.5 0-5-.2-7.5 0-.6.1-1.2.1-1.8.3-.2 0-.5.2-.7.1-.5-.3-1-1.1-1.6-.8-.6.2-1 1-1.6.5-1.2-.9-2.2-.1-3.5.2s-2.6-.5-3.9-.1c-1 .3-1.9.6-2.9.2-1-.3-1.3-1.1-.4-1.8 1.4-1.1 3-1.3 4.8-1.2 2.6.2 5.1 0 7.7-.1.1 0 .1 0 .1.1 1.1.4 1.8-.5 2.4-1.2.1-.1.2-.1.3 0 .9 1.4 2.1-.2 3.2-.1.3 0 .6.1.8.4.1.1.1.3.1.4.1.7.9.6.9-.2 0-.1.1-.2.2-.2.9.4 2.1.9 2.9-.1.6-.8.7-2 .8-3 .1-2.7-.1-5.4-.2-8-.2-2.6-.4-5.2-.1-7.8s.3-5.1.2-7.6c0-1.3-.1-2.7 0-4 .1-1.2.3-2.6.1-3.8-.1-1.1-.8-2.1-.9-3.1s0-2 .2-3c.1-.6.4-1.3.4-2 0-.5-.1-1.1 0-1.6 0-.3 0-.7.2-.9.3-.4.5-.9-.2-1-1.7-.2-3.5-1.3-5.2-.2 0 .4.1.8 0 1.2.1.1.2.2.2.3.4.2.8.2 1.3.2l1.6-.1c.5.1.8.4.7.9-.1.4-.4.7-.6 1-.3.6-.3 1.3-.3 2 0 1.6 0 3.2.1 4.8 0 1.3.2 2.7.3 4l.1.1c.1 1.5.6 3 .6 4.5l-.4 1.8c0 1.9-.2 5.5-.2 5.5 0 3.3-.6 6.6 0 9.9.2 1.3-.3 2.6-.3 3.9-.1 1.4.1 2.9-.1 4.3 0 .1 0 .2-.1.2-3 .6-6.1.7-9.1.5-.8 0-1.7-.1-2.4.2-.3.1-.7.3-1 .3l-1.1-.5c-.5-.1-1-.2-1.6-.3-1.4-.2-2.7-.3-4 .3-.7.3-1.4.2-2.1-.1-.8-.3-1.5-.8-2.4-.3-.4.2-.7.4-1.1.5-.3.1-.7 0-1-.1-.7-.3-1.3-.3-2-.2.1.1 0 .3-.1.3-4.5-.2-9 .3-13.4.3-.2.1-.4.3-.5.3h-.1c-.1 0-.1-.4-.1-.4-.6-.7-.5-2.8-.4-3.5.2-4.2-.3-8.3-.5-12.5-.1-2.1-.1-4.1.3-6.2.4-2.3.4-4.5.3-6.9l.2-13.8c0-.1.1-.1.1-.1h.1c1.2-.1 2.6-.4 3.8-.1h1.7c.1 0 .1 0 .1.1 2.4 0 4.8-.2 7.2-.3.8 0 1.7 0 2.5-.3.4-.1.9-.3 1.4-.3 1.1.1 2.2.4 3.3.7.8.2 1.3-1.2 2-.7 1 .7 2.2.4 3.4.4.6 0 1.2-.1 1.9-.1.3 0 .6.1.9.2.3-.1.6 0 .9.1l5.6-.2c1.1 0 2.4.1 3.4-.3.3-.1.4-.3.5-.5l-.1-.3-.3-.5c-1.2-.4-2.6-.3-3.9-.3-1.7-.1-3.4.2-5.2.3-1.6.1-3.3.2-4.9.1-.9-.1-2.7-.5-3.5.2-.1.1-.2.1-.2 0-1.6-1.3-3.6.6-5.4.1-1.1-.3-2.1-.5-3.2-.4s-2.1.3-3.2.2l-7.2.1c-.5 0-1 0-1.5-.1-.4-.1-1-.2-1.4-.1-.7.2-.8.5-.7.7.2.1-.4 1-.5 1.4v1.1c-.2 1.7-.3 3.2-.7 4.7-.2.8-.6 2-.3 2.9l.8 1.4c.4.9.4 2 .4 3-.1 3.1-.1 6.3-.2 9.5s-.3 6.3-.2 9.5c.1 2.9.6 5.9.2 8.8-.1 1-1.3 2.7-.2 3.4.6.4 1.4.5 2.1.5 1.8.1 3.6-.1 5.4-.3.7-.1 1.3-.2 2-.2.5 0 1 0 1.5.2.4.2 1.1.4 1.6.4 0 0 .8 0 .8-.2.7-.3 1.2-.5 2.1-.3.8.2 1.6.3 2.4.1.4-.1 1.1-.1 1.6 0l.2.1c.2-.1-.1.2-.3.3-1 .4-.7 1.7-.8 2.5 0 .1-.1.1-.2.1-.4 0-.9 0-1.2-.4-.5-.9-1.6-1.4-1.6.3 0 .1-.1.2-.2.2s-.2-.1-.2-.2-1.2-.7-1.3-.8c-.6-.3-1.2-.7-1.9-.5-.4.1-.8.4-1.2.6-.7.9-1.4 1.8-2.5 1.2-.2-.1-1.1-.9-1.2-.7-.2.3-.5.5-.9.7-.9.4-2 .3-3 .3l-.2-.1c-.1-.4-.3-1.2-.8-.7-.1.1-.2.2-.4.3l-.5.4c-.7.3-2.7-.1-3-.6-.2-.3-.3-.7-.4-1.1-.2-1-.1-2-.1-3-.1-2.5-.3-4.9-.5-7.4-.1-1.3-.2-2.6-.1-3.8.1-.8.1-2 .5-2.7.3-.6.1-1.1-.3-1.5-.1-.1-.2-.4-.2-.5-.1-.9.1-1.9.1-2.8 0-.7.1-1.4.2-2.1 0-.5-.1-1-.2-1.5 0-.2 0-.5.1-.8.3-.4.2-.7.1-1.2-.3-1 0-2.1.1-3.1.1-1.2.1-2.4 0-3.6-.1-1.3-.4-2.6-.3-3.9.1-1.2.2-2.3.2-3.5.4-2.2.4-4.4.4-6.5v.5s-.2-2.8 1-3.4c1.7-1 3.9-.8 5.8-.9 2.5-.1 5 .1 7.5.1 1.4 0 2.9 0 4.3-.3 1-.2 2-.3 3-.3l3.6.5c1.2.1 2.4.1 3.6 0 2.6-.2 5.3-.1 7.9 0l4.1.2c.6 0 1.4.2 2 0l1.2-.4c.9-.2 1.5 0 2.3.2l3.1.7c.3-.1.7-.1 1 .2.6.5 0 1.2.4 1.8.5.7 1 1.2 1.1 2.1.1 1 .2 2-.2 3-.2.6-.5 1.3-.2 2 .2.4.4.8.5 1.3.2.9.2 1.9.2 2.9l-.2 3.3c-.1.7-.4 1.4-.4 2.1 0 .6.2 1.1.3 1.6.4 1.8-1.2 2.9-1.5 4.6-.2.9.9.5 1.3 1 .3.3.1.9.1 1.3l.1 2.9c-.1 1.2-.4 2.2-.1 3.4.2.7.3 1.4.1 2-.2.7-.9 2.4.1 2.7l.1.1c0 .3-.1.5-.2.8-.5 1 .2.8.4 1.5.1.6-.2.9-.3 1.4-.2.9.3 1.7.3 2.6 0 .9-.5 1.3-.3 2.1.1 0 .1 0 .1.1.1.4.1.9 0 1.3-.2.6-.5.7.2 1.1l-.2.3zm-11.5-29.3c-.4-2.6-.7-5.3-1.5-7.7-.4-1-.6-2.2-1.8-2.4-1.6-.3-1 1.1-.8 2.3.3 2 .4 3.9.9 5.8.3 1.3 1 2.9-.7 1.9-3-1.7-4-5.7-5.2-8.6-.5-1.3-2.1-4.5-3.1-5.3-.5-.4-3-.9-3.5-.6-1 .7 2.1 5.7 2.6 6.5 1 2 2 3.9 3.3 5.7.9 1.3 2.3 2.4.3 3.2-2.1.8-3.1-.4-4.5-1.4-1.1-.9-2.6-1-4-1.1-3.9-.5-7.6 0-10.7 2.5-1.5 1.2-2.4 3-3.2 4.7-.2.4-1.5 4.3-1.3 4.4-.8-.1-.3-2-1.3-.9-.9 1 .2 3.7.7 4.6.9 2.1 1.8 4.2 2.6 6.4.7 2.2.9 2.1 2.9 2.3 2.6.2 5.1-.6 7.6-.9 0 0-4.5-2.8 4.4.3 2 .7 4.1.5 6.1.6 1.5-.3 1.5-2.9 2.3-4.1.3-.4 1.7-2.7 2.2-2.9.6-.2 1.6.4 2.2.5 3.7.6 4.9-2.5 4.3-5.4-.5-2.6-.2-5.5.2-7.5-.1-.6-.9-2.2-1-2.9zm-17.1 14.9v-.3.3zm.6-1c.1.7.1 1.4.1 2.1v1.1c0 .2 0 .3-.1.4 0 .2-.1.2-.2.3-.4.2-1 .3-1.5.2-.2 0-.5-.1-.7-.2l-.3-.3c-.1-.1-.2-.1-.2-.2-.1-.1-.1-.3-.2-.5 0-.1-.1-.2-.1-.4-.1-.3-.2-.6-.2-.8-.1-.6-.2-1.2-.2-1.8 0-.8 0-1.9.5-2.6.2-.4.6-.5 1.1-.7.4-.1 1.1-.2 1.4.1-.1-.1 0-.3 0-.4 0-.2 0-.4.1-.6.1-.6 0-1.2 0-1.7v-3.7c0-.1-.1-.2 0-.3.1-.1.4-.4.6-.4s.2.6.3.7c.1.6.1 1.2 0 1.8-.1 1.3-.2 2.7-.2 4 0 .2 0 .5.1.8 0 .3 0 .7.1 1v.9c-.5.6-.5.9-.4 1.2zm-.6.7v-1.9c0-.2 0-.5-.1-.7 0-.2-.2-.3-.2-.3l-.2-.1c-.6-.2-1.3-.1-1.6.5-.2.4-.2.8-.2 1.3l.1 1.5c.2 1.1.7 2.8 2.1 2.6 0-.8.1-1.6.1-2.5v-.4z"/></svg>