<svg xmlns="http://www.w3.org/2000/svg" viewBox="39 -18.3 121.7 81.3" enable-background="new 39 -18.3 121.7 81.3"><path d="M62.3 27.1c0-1.4-.9-2.9-3.5-3v-3.5c2.6-.1 3.5-1.6 3.5-3 0-2.5-.4-4.1-.4-7 0-4.4 1.6-5.8 5.2-5.8h9.6v3.2h-7.8c-1.7 0-2.2.6-2.2 2.8s.2 4.2.2 6.6c0 3.1-1 4.3-3 4.8v.2c2 .5 3 1.7 3 4.8 0 2.5-.2 4.4-.2 6.6s.5 2.9 2.2 2.9h.8v3.1h-2.6c-3.6 0-5.2-1.4-5.2-5.8 0-2.9.4-4.4.4-6.9zm8.5-22h6v22.5c0 1.3.6 1.7 1.1 1.7.2 0 .4 0 .7-.1l.7 4.4c-.7.3-1.7.5-3 .5-4.1 0-5.5-2.7-5.5-6.8v-22.2zm16.9 7.8c5.7 0 8.6 4.2 8.6 9.7 0 1.1-.1 2-.2 2.5h-12.3c.5 3.1 2.6 4.4 5.3 4.4 1.5 0 2.9-.4 4.4-1.3l2 3.6c-2.1 1.4-4.8 2.3-7.2 2.3-5.8 0-10.2-3.9-10.2-10.6-.1-6.5 4.7-10.6 9.6-10.6zm3.5 8.5c0-2.3-1-4-3.4-4-1.9 0-3.5 1.3-3.9 4h7.3zm8.5 6.2c1.8 1.4 3.5 2.1 5.2 2.1 1.8 0 2.6-.7 2.6-1.7 0-1.3-2-2-4.1-2.8-2.4-.9-5.3-2.6-5.3-5.9 0-3.7 3.1-6.3 7.7-6.3 3.1 0 5.4 1.3 7.1 2.6l-2.7 3.6c-1.5-1.1-2.8-1.7-4.3-1.7s-2.3.6-2.3 1.6c0 1.3 1.9 1.8 4 2.6 2.6.9 5.5 2.4 5.5 6.1s-2.9 6.5-8.3 6.5c-2.6 0-5.7-1.1-7.7-2.8l2.6-3.9zm16.3 0c1.8 1.4 3.5 2.1 5.2 2.1 1.8 0 2.6-.7 2.6-1.7 0-1.3-2-2-4.1-2.8-2.4-.9-5.3-2.6-5.3-5.9 0-3.7 3.1-6.3 7.7-6.3 3.1 0 5.4 1.3 7.1 2.6l-2.7 3.6c-1.5-1.1-2.8-1.7-4.3-1.7s-2.3.6-2.3 1.6c0 1.3 1.9 1.8 3.9 2.6 2.6.9 5.5 2.4 5.5 6.1s-2.9 6.5-8.3 6.5c-2.6 0-5.7-1.1-7.7-2.8l2.7-3.9zm14.8 9c1.7 0 2.2-.6 2.2-2.9 0-2.2-.2-4.2-.2-6.6 0-3.1 1-4.3 3-4.8v-.2c-2-.5-3-1.7-3-4.8 0-2.4.2-4.5.2-6.6 0-2.2-.4-2.8-2.2-2.8h-.8v-3.1h2.6c3.6 0 5.2 1.4 5.2 5.8 0 2.8-.4 4.4-.4 7 0 1.4.9 2.9 3.5 3v3.5c-2.6.1-3.5 1.6-3.5 3 0 2.6.4 4.1.4 7 0 4.4-1.6 5.8-5.2 5.8h-2.6v-3.2l.8-.1z"/></svg>