<svg xmlns="http://www.w3.org/2000/svg" viewBox="39 -18.3 121.7 81.3" enable-background="new 39 -18.3 121.7 81.3"><path d="M127.5 42.2h-55.4c-2.6 0-4.7-2.1-4.7-4.7v-30.4c0-2.6 2.1-4.7 4.7-4.7h55.4c2.6 0 4.7 2.1 4.7 4.7v30.5c-.1 2.5-2.2 4.6-4.7 4.6zm-55.4-36.7c-.9 0-1.6.7-1.6 1.6v30.5c0 .9.7 1.6 1.6 1.6h55.4c.9 0 1.6-.7 1.6-1.6v-30.5c0-.9-.7-1.6-1.6-1.6h-55.4zm4.6 27.4v-21.1h6.2l6.2 7.8 6.2-7.8h6.2v21.2h-6.2v-12.2l-6.2 7.8-6.2-7.8v12.1h-6.2zm38.9 0l-9.3-10.3h6.2v-10.8h6.2v10.9h6.2l-9.3 10.2z"/></svg>