<svg xmlns="http://www.w3.org/2000/svg" viewBox="39 -18.3 121.7 81.3" enable-background="new 39 -18.3 121.7 81.3"><path d="M62.2 15.3c-1.5 0-2.7.4-3.5 1-.4-.7-1.2-1.1-2.2-1.1-1.6 0-2.3.4-2.3 1.2 0 .5.1.7.2 1.1h1.2c.5 0 .8.2.8.9v8.7c0 .2.2.4.4.4h1.6c.2 0 .4-.2.4-.4v-6.7c0-1.9 1-2.8 3-2.8 1.2 0 1.6.2 1.8.4.2.2.4.6.4 1.6v7.6c0 .2.2.4.4.4h1.6c.2 0 .4-.2.4-.4v-7.3c0-1.7-.3-2.9-1-3.5-.3-.8-1.5-1.1-3.2-1.1zm11.6 0c-2.2 0-3.6.4-4.3 1.2-.7.8-1 2.4-1 5 0 2.5.3 4.2 1 5s2.1 1.2 4.3 1.2c2.2 0 3.7-.4 4.4-1.2.7-.8 1-2.4 1-5 0-2.5-.3-4.2-1-5s-2.3-1.2-4.4-1.2zm2.4 9.7c-.1.2-.6.5-2.4.5-1.7 0-2.2-.3-2.4-.5-.2-.2-.4-1-.4-3.4 0-2.5.3-3.2.4-3.4.1-.2.6-.5 2.4-.5 1.7 0 2.2.3 2.4.5s.4 1 .4 3.4c0 2.5-.4 3.2-.4 3.4zm27.3-1.6h-1.7c-.2 0-.4.2-.4.4v.4c0 .4-.1.9-.4 1.1-.2.1-.7.3-2.4.3-1.6 0-2.2-.4-2.3-.6-.2-.2-.4-.8-.5-2.7h7.6c.2 0 .4-.2.4-.4v-.9c0-2.3-.4-3.7-1.1-4.5s-2.2-1.1-4.4-1.1c-2 0-3.4.4-4.1 1.3s-1.1 2.4-1.1 4.8c0 2.5.4 4.2 1.1 5 .7.9 2.2 1.3 4.4 1.3 1.9 0 3.2-.3 4-.8s1.3-1.5 1.3-2.8v-.4c0-.3 0-.5-.4-.4zm-7.1-5.4c.2-.2.7-.5 2.3-.5s2.1.3 2.3.4c.2.2.5.6.5 2.1v.1h-5.6c.1-1.3.3-1.9.5-2.1zm11.2-2.5h-1.6c-.2 0-.4.2-.4.4v12.2c0 .9-.1 1.3-.2 1.4l-.3.1h-1.3c-.7.4-1.1 2.2 1.3 2.2h.2c1.3 0 2.7-.6 2.7-3.2v-12.7c-.1-.2-.2-.4-.4-.4zm4.5 0h-1.6c-.2 0-.4.2-.4.4v11.2c0 .2.2.4.4.4h1.6c.2 0 .4-.2.4-.4v-11.2c0-.2-.2-.4-.4-.4zm16.7 4.9l-3-.2c-.9 0-1.2-.5-1.2-1.4 0-.8.2-1 .3-1.1s.6-.2 2.1-.2c1.7 0 2.1.2 2.2.2.1.1.3.4.3 1.1 0 .2.2.4.4.4h1.6c.2 0 .4-.2.4-.4v-.4c0-2.1-1.6-3.1-4.9-3.1-2 0-3.3.2-4 .7-.7.5-1.1 1.5-1.1 2.9 0 1.5.5 2.5 1.4 3s2.5.7 5.1.7c.6 0 1.2.2 1.2 1.3 0 .7-.1 1.1-.4 1.2-.2.1-.8.3-2.4.3-1.3 0-1.8-.2-2-.3-.2-.2-.4-.5-.4-1.1v-.5c0-.2-.2-.4-.4-.4h-1.7c-.2 0-.4.2-.4.4v.6c0 1.3.4 2.3 1.2 2.8s2.1.7 4 .7 3.2-.3 3.9-.8c.8-.6 1.2-1.5 1.2-2.9 0-2.1-1.2-3.3-3.4-3.5zm16.2 5h-.7c-.5 0-.8-.2-.8-.9v-8.6c0-.2-.2-.4-.4-.4h-1.6c-.2 0-.4.2-.4.4v6.4c0 1.2-.2 2.1-.6 2.5s-1.2.6-2.3.6-1.5-.2-1.7-.4c-.1-.1-.4-.6-.4-1.7v-7.5c0-.2-.2-.4-.4-.4h-1.6c-.2 0-.4.2-.4.4v7.5c0 2.8 1.5 4.3 4.4 4.3 1.4 0 2.4-.3 3.2-.9l.1-.2c.3.7.8 1 1.7 1 1.6 0 2.3-.4 2.3-1.2-.2-.3-.3-.6-.4-.9zm-53.2 0c-.4 0-.7-.2-.8-.7v-11.3c0-.2-.2-.4-.4-.4h-1.6c-.2 0-.4.2-.4.4v2.7c-.7-.5-1.8-.8-3.3-.8-1.8 0-3 .5-3.7 1.4-.7.9-1 2.4-1 4.6 0 2.4.3 4 1 4.9s2 1.4 3.9 1.4c1.4 0 2.4-.3 3.1-.8l.2-.1c.3.6.8 1 1.7 1 1.6 0 2.3-.4 2.3-1.2 0-.5-.1-.7-.2-1.1h-.8zm-6.1.1c-1.1 0-1.8-.2-2.1-.7-.2-.4-.5-1.2-.5-3.5 0-2 .3-2.8.5-3.1.3-.4 1-.7 2.1-.7s1.9.2 2.3.7c.3.3.6 1.1.6 3 0 2.3-.3 3.3-.5 3.6-.4.4-1.2.7-2.4.7zm34.8-10h-2.5v-2.3c0-.2-.2-.4-.4-.4h-1.6c-.2 0-.4.2-.4.4v2.3h-1.1c-.2 0-.4.2-.4.4v1.4c0 .2.2.4.4.4h1.1v6.8c0 1.4.6 3.2 3.6 3.2 2.3-.1 1.9-1.8 1.2-2.2h-1.5c-.5-.1-.9-.3-.9-1.3v-6.4h1.1c2.4-.2 2-1.8 1.4-2.3z"/></svg>