<svg xmlns="http://www.w3.org/2000/svg" viewBox="39 -18.3 121.7 81.3" enable-background="new 39 -18.3 121.7 81.3"><path d="M125.9 26.2c-2.5 0-4.7.6-6.6 1.5-.7-1.3-1.4-2.5-1.5-3.4-.1-1-.3-1.6-.1-2.9.2-1.2.9-3 .9-3.1s-.2-.8-1.6-.8c-1.5 0-2.7.3-2.9.7-.1.4-.4 1.3-.6 2.2-.3 1.3-2.9 6.1-4.4 8.6-.5-1-.9-1.8-1-2.5-.1-1-.3-1.6-.1-2.9.2-1.2.9-3 .9-3.1s-.2-.8-1.6-.8c-1.5 0-2.7.3-2.9.7-.1.4-.3 1.3-.6 2.2-.3.9-3.9 8.8-4.8 10.8-.5 1-.9 1.9-1.2 2.5v.1c-.2.5-.4.8-.4.8-.2.4-.4.7-.5.7s-.2-1 0-2.3c.5-2.7 1.8-7 1.8-7.2 0-.1.2-.8-.8-1.2s-1.4.3-1.5.3l-.2.2s1.2-4.8-2.2-4.8c-2.1 0-5 2.3-6.4 4.4-.9.5-2.8 1.5-4.9 2.7l-2.4 1.3-.2-.2c-4.1-4.3-11.6-7.4-11.3-13.2.1-2.1.9-7.7 14.4-14.5 11.1-5.5 20-4 21.6-.6 2.2 4.8-4.8 13.8-16.3 15.1-4.4.5-6.7-1.2-7.3-1.8-.6-.7-.7-.7-.9-.6-.4.2-.1.8 0 1.1.3.9 1.8 2.5 4.2 3.3 2.1.7 7.3 1.1 13.5-1.3 7-2.7 12.5-10.2 10.9-16.5-1.6-6.4-12.3-8.5-22.3-4.9-6 2.1-12.5 5.5-17.1 9.8-5.5 5.2-6.4 9.7-6.1 11.6 1.3 6.7 10.5 11 14.2 14.3-.2.1-.4.2-.5.3-1.9.9-8.9 4.6-10.6 8.5-2 4.4.3 7.6 1.8 8 4.7 1.3 9.6-1.1 12.2-5s2.3-9 1.1-11.3v-.1c.5-.3 1-.6 1.4-.9.9-.6 1.9-1.1 2.7-1.5-.4 1.2-.8 2.7-.9 4.8-.2 2.5.8 5.7 2.2 7 .6.6 1.3.6 1.8.6 1.6 0 2.3-1.3 3.1-2.8 1-1.9 1.8-4.1 1.8-4.1s-1.1 5.9 1.8 5.9c1.1 0 2.1-1.4 2.6-2.1l.1-.1c.1-.2.2-.3.2-.3.4-.7 1.4-2.4 2.8-5.2 1.8-3.6 3.6-8.1 3.6-8.1s.2 1.1.7 2.9c.3 1.1 1 2.3 1.5 3.4-.4.6-.7.9-.7.9-.3.5-.7.9-1.1 1.4-1.5 1.7-3.2 3.7-3.4 4.3-.3.7-.2 1.2.3 1.6.4.3 1.1.3 1.8.3 1.3-.1 2.2-.4 2.7-.6.7-.2 1.5-.6 2.3-1.2 1.4-1 2.3-2.5 2.2-4.5 0-1.1-.4-2.2-.8-3.2l.4-.6c2.2-3.3 4-6.9 4-6.9s.2 1.1.7 2.9c.3.9.8 1.9 1.3 2.9-2.1 1.7-3.4 3.7-3.9 5-.8 2.4-.2 3.5 1.1 3.8.6.1 1.3-.1 1.9-.4.7-.2 1.6-.7 2.5-1.3 1.4-1 2.8-2.5 2.7-4.5 0-.9-.3-1.8-.6-2.7 1.8-.7 4.1-1.2 7.1-.8 6.3.7 7.6 4.7 7.3 6.3-.2 1.7-1.6 2.6-2 2.8-.4.3-.6.4-.5.6.1.3.3.3.6.2.5-.1 3.3-1.3 3.4-4.4-.1-3.8-3.8-8.1-10.4-8.1zm-48.7 16.5c-2.1 2.3-5 3.1-6.3 2.4-1.4-.8-.8-4.2 1.8-6.6 1.6-1.5 3.6-2.8 4.9-3.7.3-.2.8-.5 1.3-.8l.1-.1.3-.2c1 3.5.1 6.6-2.1 9zm15.2-10.4c-.7 1.8-2.3 6.3-3.2 6.1-.8-.2-1.3-3.7-.2-7.1.6-1.7 1.8-3.8 2.5-4.6 1.1-1.3 2.4-1.7 2.7-1.2.5.7-1.3 5.7-1.8 6.8zm12.6 6c-.3.2-.5.3-.7.2-.1-.1.1-.3.1-.3s1.6-1.7 2.2-2.5c.4-.4.8-1 1.2-1.6v.2c.1 2.1-1.9 3.5-2.8 4zm9.8-2.2c-.2-.2-.2-.7.6-2.3.3-.6 1-1.7 2.2-2.8.1.4.2.8.2 1.2-.1 2.6-1.9 3.5-3 3.9z"/></svg>