<svg xmlns="http://www.w3.org/2000/svg" viewBox="39 -18.3 121.7 81.3" enable-background="new 39 -18.3 121.7 81.3"><path d="M75.7 16.6c.7 0 1.3.1 1.7.3s.7.4.7.7c0 .4-.1.8-.3 1.2l-.5 1.1c-.1.1-.1.1-.2 0-.1 0-.1-.1-.1-.3.1-.2.1-.6.1-1 0-.5-.1-.8-.4-1.1-.2-.3-.6-.4-1-.4-.6 0-1 .2-1.3.5s-.5.8-.5 1.4c0 .5.1 1 .4 1.5s.6.9.9 1.4l1 1.5s.4 1.1.4 1.8c0 1.2-.5 2.1-1.4 2.7-.9.7-2.2 1-3.7 1-1.1 0-2-.2-2.6-.5-.6-.4-1-.7-1-1.2 0-.1 0-.3.1-.5s.2-.5.4-.7l.5-.8c.2-.3.4-.5.6-.6.1-.1.2 0 .3 0 .1.1.1.2 0 .3-.2.2-.3.4-.4.6-.1.2-.1.5-.1.9 0 .6.2 1.1.6 1.4.4.4.9.6 1.5.6.8 0 1.5-.2 2-.7s.7-1 .7-1.7c0-.6-.1-1.2-.4-1.7l-.9-1.6-.9-1.5c-.3-.5-.4-1.1-.4-1.7 0-.8.4-1.6 1.1-2.1.6-.6 1.7-.8 3.1-.8zm13.3.2c.2.1.2.2.2.3s-.2.2-.4.3h-1.7c-.6 0-1.3.1-2 .1-.7 1.6-1.2 3.1-1.6 4.7-.4 1.5-.6 2.7-.6 3.7 0 1.1.4 1.7 1.3 1.7.8 0 1.8-.7 2.8-2.2.1-.1.2-.1.3 0 .1.1.1.2.1.3-.6.9-1.3 1.7-2.1 2.4s-1.7 1-2.5 1-1.5-.2-1.9-.6c-.4-.4-.6-1-.6-1.7 0-.9.2-2.2.7-3.9s1-3.4 1.8-5.1c-.8.1-1.6.2-2.3.4-.2 0-.2-.1-.1-.2s.2-.3.4-.4c.2-.1.5-.3.8-.4.3-.1.6-.2.8-.2h.8c.4-.9.9-1.9 1.3-2.7.5-.9.9-1.7 1.4-2.4.2-.2.5-.4.8-.6s.7-.3 1-.4.6-.2.8-.2c.2 0 .3 0 .3.2-.6.8-1.1 1.8-1.6 2.8-.5 1-1 2.1-1.5 3.3h1.9c.3-.2.8-.2 1.4-.2zm29.6-24.4c.5 0 .9.1 1.2.4.3.2.5.6.6 1s.1.9 0 1.4-.3 1-.6 1.6c-.1.1-.1.1-.2 0s-.2-.1-.2-.2c.1-.4-.1-.7-.4-1s-.9-.4-1.6-.4c-1.3 0-2.7.5-4 1.5-1.4 1-2.7 2.3-3.9 3.9-1.3 1.6-2.5 3.5-3.6 5.6s-2.1 4.3-2.9 6.5-1.5 4.5-1.9 6.7c-.5 2.2-.7 4.2-.7 6.1 0 1 .3 1.5.8 1.5.4 0 .8-.2 1.1-.5.4-.3.8-.8 1.3-1.5.1-.1.2-.1.3 0 .1.1.1.2.1.3-.7 1-1.4 1.8-2.3 2.4-.9.7-1.7 1-2.4 1-.6 0-1-.2-1.3-.5-.2-.4-.4-.8-.4-1.4 0-1.5.3-3.4 1-5.7s1.5-4.7 2.6-7.3 2.4-5.1 3.8-7.6 2.9-4.8 4.5-6.9c1.5-2 3.1-3.7 4.7-5 1.6-1.3 3.1-1.9 4.4-1.9zm-43.3 60c-.5 0-.9-.1-1.2-.4-.3-.2-.5-.6-.6-1s-.1-.9 0-1.4.3-1 .6-1.6c.1-.1.1-.1.2 0s.2.1.2.2c-.1.4.1.7.4 1 .3.3.9.4 1.6.4 1.3 0 2.7-.5 4-1.5 1.4-1 2.7-2.3 3.9-3.9 1.3-1.6 2.5-3.5 3.6-5.6s2.1-4.3 2.9-6.5c.8-2.2 1.5-4.5 1.9-6.7.5-2.2.7-4.2.7-6.1 0-1-.3-1.5-.8-1.5-.4 0-.8.2-1.1.5-.4.3-.8.8-1.3 1.5-.1.1-.2.1-.3 0s-.1-.2-.1-.3c.7-1 1.4-1.8 2.3-2.4.9-.7 1.7-1 2.4-1 .6 0 1 .2 1.3.5.2.4.4.8.4 1.4 0 1.5-.3 3.4-1 5.7s-1.5 4.7-2.6 7.3-2.4 5.1-3.8 7.6-2.9 4.8-4.5 6.9c-1.5 2-3.1 3.7-4.7 5-1.6 1.2-3.1 1.9-4.4 1.9zm33-23.3c-1.4 0-2.1-.7-2.1-2.2 0-.5.1-1.1.2-1.8s.3-1.4.5-2.1.5-1.5.9-2.2c.3-.7.7-1.5 1.2-2.1-.4.2-.7.5-1 .7s-.6.5-.9.8c-.1.1-.2 0-.3-.1-.1-.1-.1-.2 0-.3.6-.6 1.3-1.2 2.4-1.8 1-.6 2-1.1 3-1.5.2 0 .3 0 .4.1s.1.2 0 .3c-1 1.4-1.9 2.8-2.5 4.4-.6 1.6-1 3.1-1 4.6 0 .9.3 1.4.9 1.4.4 0 .9-.3 1.6-.9.6-.6 1.3-1.3 2-2.2s1.4-2 2.1-3.1c.7-1.2 1.3-2.4 1.9-3.6.1-.2.4-.4.9-.6.5-.2 1-.3 1.4-.3.5 0 .6.1.4.4-.5.8-.9 1.6-1.2 2.4l-.9 2.2c-.2.7-.4 1.4-.5 2.2-.1.7-.2 1.5-.2 2.4 0 1 .3 1.6.8 1.6.6 0 1.2-.5 1.9-1.5.1-.1.2-.1.3 0 .1.1.1.2.1.3-.6.8-1.2 1.5-1.8 1.9-.7.4-1.3.7-1.8.7-1.4 0-2.1-.8-2.1-2.4 0-1.7.3-3.3.9-4.9-1.2 2.2-2.5 4-3.9 5.3-1.5 1.2-2.7 1.9-3.6 1.9zm20.1-12.5c.7 0 1.3.1 1.7.3s.7.4.7.7c0 .4-.1.8-.3 1.2l-.5 1.1c-.1.1-.1.1-.2 0-.1 0-.1-.1-.1-.3.1-.2.1-.6.1-1 0-.5-.1-.8-.4-1.1-.2-.3-.6-.4-1-.4-.6 0-1 .2-1.3.5s-.5.8-.5 1.4c0 .5.1 1 .4 1.5s.6.9.9 1.4.7 1 1 1.5.4 1.1.4 1.8c0 1.2-.5 2.1-1.4 2.7-.9.7-2.2 1-3.7 1-1.1 0-2-.2-2.6-.5-.6-.4-1-.7-1-1.2 0-.1 0-.3.1-.5s.2-.5.4-.7l.5-.8s.4-.5.6-.6c.1-.1.2 0 .3 0 .1.1.1.2 0 .3-.2.2-.3.4-.4.6-.1.2-.1.5-.1.9 0 .6.2 1.1.6 1.4.4.4.9.6 1.5.6.8 0 1.5-.2 2-.7s.7-1 .7-1.7c0-.6-.1-1.2-.4-1.7s-.6-1.1-.9-1.6l-.9-1.5s-.4-1.1-.4-1.7c0-.8.4-1.6 1.1-2.1.7-.6 1.7-.8 3.1-.8z"/></svg>