<svg xmlns="http://www.w3.org/2000/svg" width="32" height="32" viewBox="0 0 32 32"><path d="M32.33 3.41c-1.17.52-2.44.87-3.77 1.03 1.36-.81 2.4-2.1 2.89-3.63-1.27.75-2.67 1.3-4.17 1.59-1.2-1.27-2.9-2.07-4.79-2.07-3.63 0-6.57 2.94-6.57 6.57 0 .51.06 1.01.17 1.49-5.45-.27-10.29-2.89-13.53-6.86-.56.97-.89 2.1-.89 3.3 0 2.28 1.16 4.29 2.92 5.47-1.07-.04-2.09-.33-2.97-.82v.08c0 3.18 2.26 5.83 5.27 6.43-.56.15-1.14.23-1.73.23-.43 0-.84-.04-1.24-.11.84 2.6 3.26 4.5 6.13 4.55-2.24 1.76-5.07 2.81-8.15 2.81-.53 0-1.05-.03-1.57-.09 2.91 1.86 6.36 2.95 10.07 2.95 12.07 0 18.68-10 18.68-18.67 0-.29-.01-.57-.02-.85 1.28-.93 2.39-2.08 3.27-3.4"/></svg>